{
  "accessors": [
    {
      "bufferView": 2,
      "componentType": 5126,
      "count": 288,
      "max": [
        1012.3359985351563,
        1304.3360595703125,
        235.5
      ],
      "min": [
        999.6640014648438,
        1291.6639404296875,
        2.5
      ],
      "type": "VEC3"
    },
    {
      "bufferView": 2,
      "byteOffset": 3456,
      "componentType": 5126,
      "count": 288,
      "max": [
        0.9978594779968262,
        0.9978498220443726,
        1.0
      ],
      "min": [
        -0.9978594779968262,
        -0.9978498220443726,
        -1.0
      ],
      "type": "VEC3"
    },
    {
      "bufferView": 1,
      "componentType": 5126,
      "count": 288,
      "max": [
        4.347786903381348,
        -4.99832010269165
      ],
      "min": [
        -4.347786903381348,
        -6.485865116119385
      ],
      "type": "VEC2"
    },
    {
      "bufferView": 0,
      "componentType": 5125,
      "count": 564,
      "type": "SCALAR"
    },
    {
      "bufferView": 2,
      "byteOffset": 6912,
      "componentType": 5126,
      "count": 288,
      "max": [
        1013.2000122070313,
        1305.199951171875,
        2.5
      ],
      "min": [
        998.7999877929688,
        1290.800048828125,
        0.0
      ],
      "type": "VEC3"
    },
    {
      "bufferView": 2,
      "byteOffset": 10368,
      "componentType": 5126,
      "count": 288,
      "max": [
        0.9978599548339844,
        0.9978639483451843,
        1.0
      ],
      "min": [
        -0.9978599548339844,
        -0.9978639483451843,
        -1.0
      ],
      "type": "VEC3"
    },
    {
      "bufferView": 1,
      "byteOffset": 2304,
      "componentType": 5126,
      "count": 288,
      "max": [
        17.30666732788086,
        17.402666091918945
      ],
      "min": [
        13.317333221435547,
        -17.402666091918945
      ],
      "type": "VEC2"
    },
    {
      "bufferView": 0,
      "byteOffset": 2256,
      "componentType": 5125,
      "count": 564,
      "type": "SCALAR"
    },
    {
      "bufferView": 2,
      "byteOffset": 13824,
      "componentType": 5126,
      "count": 9488,
      "max": [
        1078.9000244140625,
        1370.900146484375,
        329.8399963378906
      ],
      "min": [
        933.099853515625,
        1225.099609375,
        -2.4800000190734863
      ],
      "type": "VEC3"
    },
    {
      "bufferView": 2,
      "byteOffset": 127680,
      "componentType": 5126,
      "count": 9488,
      "max": [
        0.9999934434890747,
        0.9999988079071045,
        1.0
      ],
      "min": [
        -0.9999929666519165,
        -0.9999992847442627,
        -1.0
      ],
      "type": "VEC3"
    },
    {
      "bufferView": 1,
      "byteOffset": 4608,
      "componentType": 5126,
      "count": 9488,
      "max": [
        22.03661346435547,
        3.2983999252319336
      ],
      "min": [
        -22.03661346435547,
        -0.024800000712275505
      ],
      "type": "VEC2"
    },
    {
      "bufferView": 0,
      "byteOffset": 4512,
      "componentType": 5125,
      "count": 14268,
      "type": "SCALAR"
    },
    {
      "bufferView": 2,
      "byteOffset": 241536,
      "componentType": 5126,
      "count": 1872,
      "max": [
        1009.1787109375,
        1351.673095703125,
        329.83721923828125
      ],
      "min": [
        903.32080078125,
        1246.4173583984375,
        221.0
      ],
      "type": "VEC3"
    },
    {
      "bufferView": 2,
      "byteOffset": 264000,
      "componentType": 5126,
      "count": 1872,
      "max": [
        0.7071230411529541,
        0.7071284651756287,
        1.0
      ],
      "min": [
        -0.7071452140808105,
        -0.7071176171302795,
        -1.0
      ],
      "type": "VEC3"
    },
    {
      "bufferView": 1,
      "byteOffset": 80512,
      "componentType": 5126,
      "count": 1872,
      "max": [
        22.03661346435547,
        0.5249999761581421
      ],
      "min": [
        -22.03661346435547,
        -2.1500000953674316
      ],
      "type": "VEC2"
    },
    {
      "bufferView": 0,
      "byteOffset": 61584,
      "componentType": 5125,
      "count": 2844,
      "type": "SCALAR"
    },
    {
      "bufferView": 2,
      "byteOffset": 286464,
      "componentType": 5126,
      "count": 2154,
      "max": [
        1075.8568115234375,
        1367.8568115234375,
        240.82000732421875
      ],
      "min": [
        905.4269409179688,
        1228.1431884765625,
        17.31999969482422
      ],
      "type": "VEC3"
    },
    {
      "bufferView": 2,
      "byteOffset": 312312,
      "componentType": 5126,
      "count": 2154,
      "max": [
        0.9990119934082031,
        0.9990121126174927,
        1.0
      ],
      "min": [
        -0.9990125298500061,
        -0.9990121126174927,
        -1.0
      ],
      "type": "VEC3"
    },
    {
      "bufferView": 1,
      "byteOffset": 95488,
      "componentType": 5126,
      "count": 2154,
      "max": [
        34.12543487548828,
        27.35713768005371
      ],
      "min": [
        -34.44939041137695,
        -27.35713768005371
      ],
      "type": "VEC2"
    },
    {
      "bufferView": 0,
      "byteOffset": 72960,
      "componentType": 5125,
      "count": 4164,
      "type": "SCALAR"
    },
    {
      "bufferView": 2,
      "byteOffset": 338160,
      "componentType": 5126,
      "count": 8561,
      "max": [
        1073.8076171875,
        1365.8076171875,
        347.6000061035156
      ],
      "min": [
        895.4901123046875,
        1230.1923828125,
        -2.4000000953674316
      ],
      "type": "VEC3"
    },
    {
      "bufferView": 2,
      "byteOffset": 440892,
      "componentType": 5126,
      "count": 8561,
      "max": [
        1.0,
        1.0,
        1.0
      ],
      "min": [
        -1.0,
        -1.0,
        -1.0
      ],
      "type": "VEC3"
    },
    {
      "bufferView": 1,
      "byteOffset": 112720,
      "componentType": 5126,
      "count": 8561,
      "max": [
        170.5,
        170.5
      ],
      "min": [
        -170.5,
        -170.5
      ],
      "type": "VEC2"
    },
    {
      "bufferView": 0,
      "byteOffset": 89616,
      "componentType": 5125,
      "count": 9900,
      "type": "SCALAR"
    },
    {
      "bufferView": 2,
      "byteOffset": 543624,
      "componentType": 5126,
      "count": 1958,
      "max": [
        1017.6978149414063,
        1314.283203125,
        347.6000061035156
      ],
      "min": [
        994.4954833984375,
        1291.0811767578125,
        220.60000610351563
      ],
      "type": "VEC3"
    },
    {
      "bufferView": 2,
      "byteOffset": 567120,
      "componentType": 5126,
      "count": 1958,
      "max": [
        0.9309171438217163,
        0.9308571815490723,
        1.0
      ],
      "min": [
        -0.9308633804321289,
        -0.9308633804321289,
        -1.0
      ],
      "type": "VEC3"
    },
    {
      "bufferView": 1,
      "byteOffset": 181208,
      "componentType": 5126,
      "count": 1958,
      "max": [
        32.76499557495117,
        33.481197357177734
      ],
      "min": [
        -32.76454162597656,
        -30.99080467224121
      ],
      "type": "VEC2"
    },
    {
      "bufferView": 0,
      "byteOffset": 129216,
      "componentType": 5125,
      "count": 2196,
      "type": "SCALAR"
    },
    {
      "bufferView": 2,
      "byteOffset": 590616,
      "componentType": 5126,
      "count": 7546,
      "max": [
        1077.2003173828125,
        1369.2003173828125,
        333.8399963378906
      ],
      "min": [
        905.01416015625,
        1226.7996826171875,
        105.31999969482422
      ],
      "type": "VEC3"
    },
    {
      "bufferView": 2,
      "byteOffset": 681168,
      "componentType": 5126,
      "count": 7546,
      "max": [
        0.9998942017555237,
        0.9998942017555237,
        1.0
      ],
      "min": [
        -0.9998942017555237,
        -0.9998942017555237,
        -1.0
      ],
      "type": "VEC3"
    },
    {
      "bufferView": 1,
      "byteOffset": 196872,
      "componentType": 5126,
      "count": 7546,
      "max": [
        1.0,
        1.0
      ],
      "min": [
        0.0,
        0.0
      ],
      "type": "VEC2"
    },
    {
      "bufferView": 0,
      "byteOffset": 138000,
      "componentType": 5125,
      "count": 11382,
      "type": "SCALAR"
    }
  ],
  "asset": {
    "extras": {
      "author": "HYYH (https://sketchfab.com/HYYH)",
      "license": "CC-BY-4.0 (http://creativecommons.org/licenses/by/4.0/)",
      "source": "https://sketchfab.com/3d-models/spiral-stair-wood-11-thread-55-diameter-3-e5a624f376eb4522ab7d184e52dc4929",
      "title": "Spiral Stair Wood 11 Thread 55 Diameter 3"
    },
    "generator": "Sketchfab-15.12.0",
    "version": "2.0"
  },
  "bufferViews": [
    {
      "buffer": 0,
      "byteLength": 183528,
      "name": "floatBufferViews",
      "target": 34963
    },
    {
      "buffer": 0,
      "byteLength": 257240,
      "byteOffset": 183528,
      "byteStride": 8,
      "name": "floatBufferViews",
      "target": 34962
    },
    {
      "buffer": 0,
      "byteLength": 771720,
      "byteOffset": 440768,
      "byteStride": 12,
      "name": "floatBufferViews",
      "target": 34962
    }
  ],
  "buffers": [
    {
      "byteLength": 1212488,
      "uri": "scene.bin"
    }
  ],
  "extensionsUsed": [
    "KHR_materials_specular"
  ],
  "images": [
    {
      "uri": "textures/Brazilian_Cherry_baseColor.jpeg"
    },
    {
      "uri": "textures/Brazilian_Cherry_metallicRoughness.png"
    },
    {
      "uri": "textures/Brazilian_Cherry_specularf0.png"
    },
    {
      "uri": "textures/17003-Stickley_O_baseColor.jpeg"
    },
    {
      "uri": "textures/17003-Stickley_O_metallicRoughness.png"
    },
    {
      "uri": "textures/17003-Stickley_O_specularf0.png"
    },
    {
      "uri": "textures/Brushed_Aged_Bro_baseColor.png"
    },
    {
      "uri": "textures/Brushed_Aged_Bro_metallicRoughness.png"
    },
    {
      "uri": "textures/Brushed_Aged_Bro_specularf0.png"
    },
    {
      "uri": "textures/Brazilian_Cherr1_baseColor.jpeg"
    },
    {
      "uri": "textures/Brazilian_Cherr1_metallicRoughness.png"
    },
    {
      "uri": "textures/Brazilian_Cherr1_specularf0.png"
    },
    {
      "uri": "textures/8206-Saddle_Oak_baseColor.jpeg"
    },
    {
      "uri": "textures/8206-Saddle_Oak_metallicRoughness.png"
    },
    {
      "uri": "textures/8206-Saddle_Oak_specularf0.png"
    },
    {
      "uri": "textures/Ground_Copper_baseColor.png"
    }
  ],
  "materials": [
    {
      "doubleSided": true,
      "extensions": {
        "KHR_materials_specular": {
          "specularColorFactor": [
            1.0,
            1.0,
            1.0
          ],
          "specularFactor": 1.0,
          "specularTexture": {
            "index": 2
          }
        }
      },
      "name": "Brazilian_Cherry",
      "pbrMetallicRoughness": {
        "baseColorFactor": [
          0.9310504565347246,
          0.9310504565347246,
          0.9310504565347246,
          1.0
        ],
        "baseColorTexture": {
          "index": 0
        },
        "metallicRoughnessTexture": {
          "index": 1
        }
      }
    },
    {
      "doubleSided": true,
      "extensions": {
        "KHR_materials_specular": {
          "specularColorFactor": [
            1.0,
            1.0,
            1.0
          ],
          "specularFactor": 1.0,
          "specularTexture": {
            "index": 5
          }
        }
      },
      "name": "17003-Stickley_O",
      "occlusionTexture": {
        "index": 4,
        "strength": 0.851812119808365
      },
      "pbrMetallicRoughness": {
        "baseColorFactor": [
          0.5836208262729943,
          0.5836208262729943,
          0.5836208262729943,
          1.0
        ],
        "baseColorTexture": {
          "index": 3
        },
        "metallicFactor": 0.0,
        "metallicRoughnessTexture": {
          "index": 4
        }
      }
    },
    {
      "doubleSided": true,
      "extensions": {
        "KHR_materials_specular": {
          "specularColorFactor": [
            1.0,
            1.0,
            1.0
          ],
          "specularFactor": 1.0,
          "specularTexture": {
            "index": 8
          }
        }
      },
      "name": "Brushed_Aged_Bro",
      "pbrMetallicRoughness": {
        "baseColorTexture": {
          "index": 6
        },
        "metallicRoughnessTexture": {
          "index": 7
        }
      }
    },
    {
      "doubleSided": true,
      "extensions": {
        "KHR_materials_specular": {
          "specularColorFactor": [
            1.0,
            1.0,
            1.0
          ],
          "specularFactor": 0.43123940949153367,
          "specularTexture": {
            "index": 11
          }
        }
      },
      "name": "Brazilian_Cherr1",
      "pbrMetallicRoughness": {
        "baseColorFactor": [
          0.5531445429167022,
          0.5531445429167022,
          0.5531445429167022,
          1.0
        ],
        "baseColorTexture": {
          "index": 9
        },
        "metallicFactor": 0.0,
        "metallicRoughnessTexture": {
          "index": 10
        },
        "roughnessFactor": 0.8761931464933987
      }
    },
    {
      "doubleSided": true,
      "extensions": {
        "KHR_materials_specular": {
          "specularColorFactor": [
            1.0,
            1.0,
            1.0
          ],
          "specularFactor": 0.37638209945020784,
          "specularTexture": {
            "index": 14
          }
        }
      },
      "name": "8206-Saddle_Oak",
      "pbrMetallicRoughness": {
        "baseColorTexture": {
          "index": 12
        },
        "metallicFactor": 0.1569528592849045,
        "metallicRoughnessTexture": {
          "index": 13
        },
        "roughnessFactor": 0.8822884031646572
      }
    },
    {
      "doubleSided": true,
      "name": "Ground_Copper",
      "pbrMetallicRoughness": {
        "baseColorTexture": {
          "index": 15
        },
        "metallicFactor": 0.0,
        "roughnessFactor": 0.6
      }
    }
  ],
  "meshes": [
    {
      "name": "Object_0",
      "primitives": [
        {
          "attributes": {
            "NORMAL": 1,
            "POSITION": 0,
            "TEXCOORD_0": 2
          },
          "indices": 3,
          "material": 4,
          "mode": 4
        }
      ]
    },
    {
      "name": "Object_1",
      "primitives": [
        {
          "attributes": {
            "NORMAL": 5,
            "POSITION": 4,
            "TEXCOORD_0": 6
          },
          "indices": 7,
          "material": 5,
          "mode": 4
        }
      ]
    },
    {
      "name": "Object_2",
      "primitives": [
        {
          "attributes": {
            "NORMAL": 9,
            "POSITION": 8,
            "TEXCOORD_0": 10
          },
          "indices": 11,
          "material": 1,
          "mode": 4
        }
      ]
    },
    {
      "name": "Object_3",
      "primitives": [
        {
          "attributes": {
            "NORMAL": 13,
            "POSITION": 12,
            "TEXCOORD_0": 14
          },
          "indices": 15,
          "material": 1,
          "mode": 4
        }
      ]
    },
    {
      "name": "Object_4",
      "primitives": [
        {
          "attributes": {
            "NORMAL": 17,
            "POSITION": 16,
            "TEXCOORD_0": 18
          },
          "indices": 19,
          "material": 3,
          "mode": 4
        }
      ]
    },
    {
      "name": "Object_5",
      "primitives": [
        {
          "attributes": {
            "NORMAL": 21,
            "POSITION": 20,
            "TEXCOORD_0": 22
          },
          "indices": 23,
          "material": 0,
          "mode": 4
        }
      ]
    },
    {
      "name": "Object_6",
      "primitives": [
        {
          "attributes": {
            "NORMAL": 25,
            "POSITION": 24,
            "TEXCOORD_0": 26
          },
          "indices": 27,
          "material": 0,
          "mode": 4
        }
      ]
    },
    {
      "name": "Object_7",
      "primitives": [
        {
          "attributes": {
            "NORMAL": 29,
            "POSITION": 28,
            "TEXCOORD_0": 30
          },
          "indices": 31,
          "material": 2,
          "mode": 4
        }
      ]
    }
  ],
  "nodes": [
    {
      "children": [
        1
      ],
      "matrix": [
        1.0,
        0.0,
        0.0,
        0.0,
        0.0,
        2.220446049250313e-16,
        -1.0,
        0.0,
        0.0,
        1.0,
        2.220446049250313e-16,
        0.0,
        0.0,
        0.0,
        0.0,
        1.0
      ],
      "name": "Sketchfab_model"
    },
    {
      "children": [
        2,
        3,
        4,
        5,
        6,
        7,
        8,
        9
      ],
      "name": "*.3ds"
    },
    {
      "mesh": 0,
      "name": "Object_2"
    },
    {
      "mesh": 1,
      "name": "Object_3"
    },
    {
      "mesh": 2,
      "name": "Object_4"
    },
    {
      "mesh": 3,
      "name": "Object_5"
    },
    {
      "mesh": 4,
      "name": "Object_6"
    },
    {
      "mesh": 5,
      "name": "Object_7"
    },
    {
      "mesh": 6,
      "name": "Object_8"
    },
    {
      "mesh": 7,
      "name": "Object_9"
    }
  ],
  "samplers": [
    {
      "magFilter": 9729,
      "minFilter": 9987,
      "wrapS": 10497,
      "wrapT": 10497
    }
  ],
  "scene": 0,
  "scenes": [
    {
      "name": "Sketchfab_Scene",
      "nodes": [
        0
      ]
    }
  ],
  "textures": [
    {
      "sampler": 0,
      "source": 0
    },
    {
      "sampler": 0,
      "source": 1
    },
    {
      "sampler": 0,
      "source": 2
    },
    {
      "sampler": 0,
      "source": 3
    },
    {
      "sampler": 0,
      "source": 4
    },
    {
      "sampler": 0,
      "source": 5
    },
    {
      "sampler": 0,
      "source": 6
    },
    {
      "sampler": 0,
      "source": 7
    },
    {
      "sampler": 0,
      "source": 8
    },
    {
      "sampler": 0,
      "source": 9
    },
    {
      "sampler": 0,
      "source": 10
    },
    {
      "sampler": 0,
      "source": 11
    },
    {
      "sampler": 0,
      "source": 12
    },
    {
      "sampler": 0,
      "source": 13
    },
    {
      "sampler": 0,
      "source": 14
    },
    {
      "sampler": 0,
      "source": 15
    }
  ]
}
