# 3ds Max Wavefront OBJ Exporter v0.97b - (c)2007 guruware
# File Created: 01.06.2024 16:05:59

mtllib Test_Door.mtl

#
# object Door
#

v  -39.3701 -0.0000 -0.0000
v  -39.3701 0.0000 39.3701
v  -39.3701 78.7402 39.3701
v  -39.3701 78.7402 -0.0000
v  39.3701 78.7402 39.3701
v  39.3701 78.7402 -0.0000
v  39.3701 0.0000 39.3701
v  39.3701 -0.0000 -0.0000
v  19.6850 0.0000 39.3701
v  19.6850 59.0551 39.3701
v  19.6850 59.0551 -0.0000
v  19.6850 -0.0000 -0.0000
v  -19.6850 59.0551 -0.0000
v  -19.6850 -0.0000 -0.0000
v  -19.6850 0.0000 39.3701
v  -19.6850 59.0551 39.3701
# 16 vertices

vn -1.0000 0.0000 -0.0000
vn 0.0000 1.0000 -0.0000
vn 1.0000 0.0000 -0.0000
vn 0.0000 -0.0000 -1.0000
vn -0.0000 0.0000 1.0000
vn 0.0000 0.0000 1.0000
vn -0.0000 -0.0000 -1.0000
vn -0.0000 -1.0000 0.0000
vn 0.0000 -1.0000 0.0000
# 9 vertex normals

vt 0.0620 0.1880 0.0000
# 1 texture coords

g Door
usemtl Material
s off
f 1/1/1 2/1/1 3/1/1 4/1/1 
f 4/1/2 3/1/2 5/1/2 6/1/2 
f 6/1/3 5/1/3 7/1/3 8/1/3 
f 9/1/1 10/1/1 11/1/1 12/1/1 
f 13/1/4 14/1/4 1/1/4 4/1/4 
f 15/1/5 16/1/5 3/1/5 2/1/5 
f 11/1/4 13/1/4 4/1/4 6/1/4 
f 16/1/6 10/1/6 5/1/6 3/1/6 
f 12/1/7 11/1/7 6/1/7 8/1/7 
f 10/1/6 9/1/6 7/1/6 5/1/6 
f 2/1/8 1/1/8 14/1/8 15/1/8 
f 8/1/9 7/1/9 9/1/9 12/1/9 
f 10/1/9 16/1/9 13/1/9 11/1/9 
f 16/1/3 15/1/3 14/1/3 13/1/3 
# 14 polygons

