# 3ds Max Wavefront OBJ Exporter v0.97b - (c)2007 guruware
# File Created: 01.06.2024 14:15:08

mtllib Prop_Painting-Frame_low.mtl

#
# object Box001
#

v  4.9433 1.0574 -6.0419
v  4.9433 1.0574 6.0419
v  -4.9433 1.0574 6.0419
v  -4.9433 1.0574 -6.0419
v  4.9433 1.3419 6.0419
v  4.9433 1.3419 -6.0419
v  -4.9433 1.3419 -6.0419
v  -4.9433 1.3419 6.0419
v  -4.9433 1.2722 8.2522
v  4.9433 1.2722 8.2522
v  4.9433 1.6456 8.1264
v  -4.9433 1.6456 8.1264
v  6.8299 1.2722 6.0419
v  6.8299 1.2722 -6.0419
v  6.7041 1.6456 -6.0419
v  6.7041 1.6456 6.0419
v  4.9433 1.2722 -8.2522
v  -4.9433 1.2722 -8.2522
v  -4.9433 1.6456 -8.1264
v  4.9433 1.6456 -8.1264
v  -6.8299 1.2722 -6.0419
v  -6.8299 1.2722 6.0419
v  -6.7041 1.6456 6.0419
v  -6.7041 1.6456 -6.0419
v  6.4004 1.0574 -6.0419
v  6.4004 1.0574 6.0419
v  -6.4004 1.0574 6.0419
v  -6.4004 1.0574 -6.0419
v  5.1581 1.7714 -6.2566
v  5.1581 1.7714 6.2566
v  -5.1581 1.7714 6.2566
v  -5.1581 1.7714 -6.2566
v  6.7041 1.2722 8.1264
v  6.6484 1.5898 8.0707
v  -6.6484 1.5898 8.0707
v  -6.7041 1.2722 8.1264
v  -6.7041 1.2722 -8.1264
v  -6.6484 1.5898 -8.0707
v  6.6484 1.5898 -8.0707
v  6.7041 1.2722 -8.1264
v  4.9433 1.0574 7.8227
v  -4.9433 1.0574 7.8227
v  -4.9433 1.0574 -7.8227
v  4.9433 1.0574 -7.8227
v  6.4004 1.0574 7.8227
v  6.4004 1.0574 -7.8227
v  -6.4004 1.0574 -7.8227
v  -6.4004 1.0574 7.8227
# 48 vertices

vn 0.0000 -1.0000 -0.0000
vn 0.0000 1.0000 -0.0000
vn -0.0223 0.3113 0.9500
vn 0.0336 0.3191 0.9471
vn 0.0319 0.3113 0.9498
vn -0.0206 0.3192 0.9475
vn 0.9497 0.3125 0.0185
vn 0.9473 0.3191 -0.0284
vn 0.9495 0.3124 -0.0272
vn 0.9475 0.3192 0.0173
vn 0.0223 0.3113 -0.9500
vn -0.0336 0.3191 -0.9471
vn -0.0319 0.3113 -0.9498
vn 0.0206 0.3192 -0.9475
vn -0.9497 0.3125 -0.0185
vn -0.9473 0.3191 0.0284
vn -0.9495 0.3124 0.0272
vn -0.9475 0.3192 -0.0173
vn 0.0733 0.9970 0.0244
vn 0.0830 0.9965 -0.0134
vn 0.0491 0.9980 -0.0393
vn 0.0601 0.9969 0.0507
vn -0.0733 0.9970 -0.0244
vn -0.0830 0.9965 0.0134
vn -0.0491 0.9980 0.0393
vn -0.0601 0.9969 -0.0507
vn 0.0427 0.2012 0.9786
vn 0.0380 0.1791 0.9831
vn -0.0664 0.2018 0.9772
vn -0.0700 0.1843 0.9804
vn -0.0427 0.2012 -0.9786
vn -0.0380 0.1791 -0.9831
vn 0.0664 0.2018 -0.9772
vn 0.0700 0.1843 -0.9804
vn 0.0160 0.9975 -0.0690
vn -0.0264 0.9979 -0.0587
vn -0.0160 0.9975 0.0690
vn 0.0264 0.9979 0.0587
vn 0.9798 0.1970 -0.0353
vn 0.9835 0.1781 -0.0319
vn 0.9786 0.1976 0.0566
vn 0.9814 0.1826 0.0592
vn -0.9798 0.1970 0.0353
vn -0.9835 0.1781 0.0319
vn -0.9786 0.1976 -0.0566
vn -0.9814 0.1826 -0.0592
vn 0.0570 0.9970 -0.0529
vn 0.0336 0.9990 0.0284
vn -0.0570 0.9970 0.0529
vn -0.0336 0.9990 -0.0284
vn -0.5004 -0.8657 0.0163
vn -0.0195 -0.8662 0.4993
vn 0.0000 -0.8944 0.4472
vn 0.0195 -0.8662 0.4993
vn 0.5004 -0.8657 0.0163
vn 0.4472 -0.8944 -0.0000
vn 0.5004 -0.8657 -0.0163
vn 0.0195 -0.8662 -0.4993
vn 0.0000 -0.8944 -0.4472
vn -0.0195 -0.8662 -0.4993
vn -0.5004 -0.8657 -0.0163
vn -0.4472 -0.8944 -0.0000
vn -0.8944 0.4472 -0.0000
vn 0.0000 0.4472 -0.8944
vn 0.8944 0.4472 -0.0000
vn -0.0000 0.4472 0.8944
# 66 vertex normals

vt 0.1138 0.8862 0.0000
vt 0.1138 0.1138 0.0000
vt 0.8862 0.1138 0.0000
vt 0.8862 0.8862 0.0000
vt 0.1138 0.0000 0.0000
vt 0.8862 0.0000 0.0000
vt 0.8862 1.0000 0.0000
vt 0.1138 1.0000 0.0000
vt 0.0000 0.8862 0.0000
vt 0.0000 0.1138 0.0000
vt 1.0000 0.1138 0.0000
vt 1.0000 0.8862 0.0000
vt 1.0000 0.0000 0.0000
vt 1.0000 1.0000 0.0000
vt 0.0000 1.0000 0.0000
vt 0.0000 0.0000 0.0000
# 16 texture coords

g Box001
usemtl wire_153228153
s 2
f 1/1/1 2/2/1 3/3/1 4/4/1 
s 4
f 5/3/2 6/4/2 7/1/2 8/2/2 
s 8
f 9/5/3 10/6/4 11/7/5 12/8/6 
s 16
f 13/5/7 14/6/8 15/7/9 16/8/10 
s 32
f 17/5/11 18/6/12 19/7/13 20/8/14 
s 64
f 21/5/15 22/6/16 23/7/17 24/8/18 
s 2
f 25/9/1 26/10/1 2/2/1 1/1/1 
f 27/11/1 28/12/1 4/4/1 3/3/1 
s 4
f 16/11/19 15/12/20 29/4/21 30/3/22 
f 24/9/23 23/10/24 31/2/25 32/1/26 
s 8
f 10/6/4 33/13/27 34/14/28 11/7/5 
f 12/8/6 35/15/29 36/16/30 9/5/3 
s 32
f 18/6/12 37/13/31 38/14/32 19/7/13 
f 20/8/14 39/15/33 40/16/34 17/5/11 
s 2
f 2/2/1 41/5/1 42/6/1 3/3/1 
f 4/4/1 43/7/1 44/8/1 1/1/1 
s 4
f 29/4/21 20/7/35 19/8/36 32/1/26 
f 31/2/25 12/5/37 11/6/38 30/3/22 
s 16
f 14/6/8 40/13/39 39/14/40 15/7/9 
f 16/8/10 34/15/41 33/16/42 13/5/7 
s 64
f 22/6/16 36/13/43 35/14/44 23/7/17 
f 24/8/18 38/15/45 37/16/46 21/5/15 
s 2
f 26/10/1 45/16/1 41/5/1 2/2/1 
f 1/1/1 44/8/1 46/15/1 25/9/1 
f 28/12/1 47/14/1 43/7/1 4/4/1 
f 3/3/1 42/6/1 48/13/1 27/11/1 
s 4
f 15/12/20 39/14/47 20/7/35 29/4/21 
f 30/3/22 11/6/38 34/13/48 16/11/19 
f 23/10/24 35/16/49 12/5/37 31/2/25 
f 32/1/26 19/8/36 38/15/50 24/9/23 
s off
f 27/6/51 48/13/51 36/13/51 22/6/51 
f 48/16/52 42/5/52 9/5/52 36/16/52 
f 42/5/53 41/6/53 10/6/53 9/5/53 
f 41/6/54 45/13/54 33/13/54 10/6/54 
f 45/16/55 26/5/55 13/5/55 33/16/55 
f 26/5/56 25/6/56 14/6/56 13/5/56 
f 25/6/57 46/13/57 40/13/57 14/6/57 
f 46/16/58 44/5/58 17/5/58 40/16/58 
f 44/5/59 43/6/59 18/6/59 17/5/59 
f 43/6/60 47/13/60 37/13/60 18/6/60 
f 47/16/61 28/5/61 21/5/61 37/16/61 
f 28/5/62 27/6/62 22/6/62 21/5/62 
f 6/4/63 5/3/63 30/3/63 29/4/63 
f 5/3/64 8/2/64 31/2/64 30/3/64 
f 8/2/65 7/1/65 32/1/65 31/2/65 
f 7/1/66 6/4/66 29/4/66 32/1/66 
# 46 polygons

