# 3ds Max Wavefront OBJ Exporter v0.97b - (c)2007 guruware
# File Created: 01.06.2024 15:28:56

mtllib Test_Kitchen-Floor-Layout-plane.mtl

#
# object Painting1
#

v  125.6584 1.0574 13.4345
v  125.6584 1.0574 25.5182
v  115.7717 1.0574 25.5182
v  115.7717 1.0574 13.4345
v  125.6584 1.3419 25.5182
v  125.6584 1.3419 13.4345
v  115.7717 1.3419 13.4345
v  115.7717 1.3419 25.5182
v  115.7717 1.2722 27.7286
v  125.6584 1.2722 27.7286
v  125.6584 1.6456 27.6028
v  115.7717 1.6456 27.6028
v  127.5450 1.2722 25.5182
v  127.5450 1.2722 13.4345
v  127.4192 1.6456 13.4345
v  127.4192 1.6456 25.5182
v  125.6584 1.2722 11.2241
v  115.7717 1.2722 11.2241
v  115.7717 1.6456 11.3499
v  125.6584 1.6456 11.3499
v  113.8851 1.2722 13.4345
v  113.8851 1.2722 25.5182
v  114.0109 1.6456 25.5182
v  114.0109 1.6456 13.4345
v  127.1154 1.0574 13.4345
v  127.1154 1.0574 25.5182
v  114.3146 1.0574 25.5182
v  114.3146 1.0574 13.4345
v  125.8732 1.7714 13.2197
v  125.8732 1.7714 25.7330
v  115.5569 1.7714 25.7330
v  115.5569 1.7714 13.2197
v  127.4192 1.2722 27.6028
v  127.3634 1.5898 27.5471
v  114.0667 1.5898 27.5471
v  114.0109 1.2722 27.6028
v  114.0109 1.2722 11.3499
v  114.0667 1.5898 11.4057
v  127.3634 1.5898 11.4057
v  127.4192 1.2722 11.3499
v  125.6584 1.0574 27.2991
v  115.7717 1.0574 27.2991
v  115.7717 1.0574 11.6537
v  125.6584 1.0574 11.6537
v  127.1154 1.0574 27.2991
v  127.1154 1.0574 11.6537
v  114.3146 1.0574 11.6537
v  114.3146 1.0574 27.2991
# 48 vertices

vn 0.0000 -1.0000 -0.0000
vn 0.0000 1.0000 -0.0000
vn -0.0223 0.3113 0.9500
vn 0.0336 0.3191 0.9471
vn 0.0319 0.3113 0.9498
vn -0.0206 0.3192 0.9475
vn 0.9497 0.3125 0.0185
vn 0.9473 0.3191 -0.0284
vn 0.9495 0.3124 -0.0272
vn 0.9475 0.3192 0.0173
vn 0.0223 0.3113 -0.9500
vn -0.0336 0.3191 -0.9471
vn -0.0319 0.3113 -0.9498
vn 0.0206 0.3192 -0.9475
vn -0.9497 0.3125 -0.0185
vn -0.9473 0.3191 0.0284
vn -0.9495 0.3124 0.0272
vn -0.9475 0.3192 -0.0173
vn 0.0733 0.9970 0.0244
vn 0.0830 0.9965 -0.0134
vn 0.0491 0.9980 -0.0393
vn 0.0601 0.9969 0.0507
vn -0.0733 0.9970 -0.0244
vn -0.0830 0.9965 0.0134
vn -0.0491 0.9980 0.0393
vn -0.0601 0.9969 -0.0507
vn 0.0427 0.2012 0.9786
vn 0.0380 0.1791 0.9831
vn -0.0664 0.2018 0.9772
vn -0.0700 0.1843 0.9804
vn -0.0427 0.2012 -0.9786
vn -0.0380 0.1791 -0.9831
vn 0.0664 0.2018 -0.9772
vn 0.0700 0.1843 -0.9804
vn 0.0160 0.9975 -0.0690
vn -0.0264 0.9979 -0.0587
vn -0.0160 0.9975 0.0690
vn 0.0264 0.9979 0.0587
vn 0.9798 0.1970 -0.0353
vn 0.9835 0.1781 -0.0319
vn 0.9786 0.1976 0.0566
vn 0.9814 0.1826 0.0592
vn -0.9798 0.1970 0.0353
vn -0.9835 0.1781 0.0319
vn -0.9786 0.1976 -0.0566
vn -0.9814 0.1826 -0.0592
vn 0.0570 0.9970 -0.0529
vn 0.0336 0.9990 0.0284
vn -0.0570 0.9970 0.0529
vn -0.0336 0.9990 -0.0284
vn -0.5004 -0.8657 0.0163
vn -0.0195 -0.8662 0.4993
vn 0.0000 -0.8944 0.4472
vn 0.0195 -0.8662 0.4993
vn 0.5004 -0.8657 0.0163
vn 0.4472 -0.8944 -0.0000
vn 0.5004 -0.8657 -0.0163
vn 0.0195 -0.8662 -0.4993
vn 0.0000 -0.8944 -0.4472
vn -0.0195 -0.8662 -0.4993
vn -0.5004 -0.8657 -0.0163
vn -0.4472 -0.8944 -0.0000
vn -0.8944 0.4472 -0.0000
vn 0.0000 0.4472 -0.8944
vn 0.8944 0.4472 -0.0000
vn -0.0000 0.4472 0.8944
# 66 vertex normals

vt 0.0300 0.9725 0.0000
vt 0.0300 0.9090 0.0000
vt 0.0820 0.9090 0.0000
vt 0.0820 0.9725 0.0000
vt 0.8822 0.1193 0.0000
vt 0.8822 0.8819 0.0000
vt 0.1197 0.8819 0.0000
vt 0.1197 0.1193 0.0000
vt 0.0981 0.9066 0.0000
vt 0.0981 0.9586 0.0000
vt 0.0961 0.9586 0.0000
vt 0.0961 0.9066 0.0000
vt 0.0960 0.9083 0.0000
vt 0.0960 0.9718 0.0000
vt 0.0941 0.9718 0.0000
vt 0.0941 0.9083 0.0000
vt 0.1001 0.9066 0.0000
vt 0.1001 0.9586 0.0000
vt 0.0982 0.9586 0.0000
vt 0.0982 0.9066 0.0000
vt 0.0940 0.9083 0.0000
vt 0.0940 0.9718 0.0000
vt 0.0920 0.9718 0.0000
vt 0.0920 0.9083 0.0000
vt 0.0223 0.9725 0.0000
vt 0.0223 0.9090 0.0000
vt 0.0896 0.9090 0.0000
vt 0.0896 0.9725 0.0000
vt 0.9946 0.1193 0.0000
vt 0.9946 0.8819 0.0000
vt 0.0073 0.8819 0.0000
vt 0.0073 0.1193 0.0000
vt 0.0981 0.9678 0.0000
vt 0.0964 0.9676 0.0000
vt 0.0964 0.8976 0.0000
vt 0.0981 0.8973 0.0000
vt 0.1001 0.9678 0.0000
vt 0.0984 0.9676 0.0000
vt 0.0984 0.8976 0.0000
vt 0.1001 0.8973 0.0000
vt 0.0300 0.8996 0.0000
vt 0.0820 0.8996 0.0000
vt 0.0820 0.9819 0.0000
vt 0.0300 0.9819 0.0000
vt 0.8822 0.9942 0.0000
vt 0.1197 0.9942 0.0000
vt 0.1197 0.0070 0.0000
vt 0.8822 0.0070 0.0000
vt 0.0960 0.9828 0.0000
vt 0.0944 0.9825 0.0000
vt 0.0944 0.8976 0.0000
vt 0.0960 0.8973 0.0000
vt 0.0940 0.9828 0.0000
vt 0.0923 0.9825 0.0000
vt 0.0923 0.8976 0.0000
vt 0.0940 0.8973 0.0000
vt 0.0223 0.8996 0.0000
vt 0.0223 0.9819 0.0000
vt 0.0896 0.9819 0.0000
vt 0.0896 0.8996 0.0000
vt 0.9946 0.9942 0.0000
vt 0.9946 0.0070 0.0000
vt 0.0073 0.0070 0.0000
vt 0.0073 0.9942 0.0000
vt 0.0912 0.8980 0.0000
vt 0.0919 0.9090 0.0000
vt 0.0820 0.8973 0.0000
vt 0.0300 0.8973 0.0000
vt 0.0207 0.8980 0.0000
vt 0.0200 0.9090 0.0000
vt 0.0200 0.9725 0.0000
vt 0.0207 0.9835 0.0000
vt 0.0300 0.9841 0.0000
vt 0.0820 0.9841 0.0000
vt 0.0912 0.9835 0.0000
vt 0.0919 0.9725 0.0000
# 76 texture coords

g Painting1
usemtl wire_153228153
s 2
f 1/1/1 2/2/1 3/3/1 4/4/1 
s 4
f 5/5/2 6/6/2 7/7/2 8/8/2 
s 8
f 9/9/3 10/10/4 11/11/5 12/12/6 
s 16
f 13/13/7 14/14/8 15/15/9 16/16/10 
s 32
f 17/17/11 18/18/12 19/19/13 20/20/14 
s 64
f 21/21/15 22/22/16 23/23/17 24/24/18 
s 2
f 25/25/1 26/26/1 2/2/1 1/1/1 
f 27/27/1 28/28/1 4/4/1 3/3/1 
s 4
f 16/29/19 15/30/20 29/6/21 30/5/22 
f 24/31/23 23/32/24 31/8/25 32/7/26 
s 8
f 10/10/4 33/33/27 34/34/28 11/11/5 
f 12/12/6 35/35/29 36/36/30 9/9/3 
s 32
f 18/18/12 37/37/31 38/38/32 19/19/13 
f 20/20/14 39/39/33 40/40/34 17/17/11 
s 2
f 2/2/1 41/41/1 42/42/1 3/3/1 
f 4/4/1 43/43/1 44/44/1 1/1/1 
s 4
f 29/6/21 20/45/35 19/46/36 32/7/26 
f 31/8/25 12/47/37 11/48/38 30/5/22 
s 16
f 14/14/8 40/49/39 39/50/40 15/15/9 
f 16/16/10 34/51/41 33/52/42 13/13/7 
s 64
f 22/22/16 36/53/43 35/54/44 23/23/17 
f 24/24/18 38/55/45 37/56/46 21/21/15 
s 2
f 26/26/1 45/57/1 41/41/1 2/2/1 
f 1/1/1 44/44/1 46/58/1 25/25/1 
f 28/28/1 47/59/1 43/43/1 4/4/1 
f 3/3/1 42/42/1 48/60/1 27/27/1 
s 4
f 15/30/20 39/61/47 20/45/35 29/6/21 
f 30/5/22 11/48/38 34/62/48 16/29/19 
f 23/32/24 35/63/49 12/47/37 31/8/25 
f 32/7/26 19/46/36 38/64/50 24/31/23 
s off
f 27/27/51 48/60/51 36/65/51 22/66/51 
f 48/60/52 42/42/52 9/67/52 36/65/52 
f 42/42/53 41/41/53 10/68/53 9/67/53 
f 41/41/54 45/57/54 33/69/54 10/68/54 
f 45/57/55 26/26/55 13/70/55 33/69/55 
f 26/26/56 25/25/56 14/71/56 13/70/56 
f 25/25/57 46/58/57 40/72/57 14/71/57 
f 46/58/58 44/44/58 17/73/58 40/72/58 
f 44/44/59 43/43/59 18/74/59 17/73/59 
f 43/43/60 47/59/60 37/75/60 18/74/60 
f 47/59/61 28/28/61 21/76/61 37/75/61 
f 28/28/62 27/27/62 22/66/62 21/76/62 
f 6/6/63 5/5/63 30/5/63 29/6/63 
f 5/5/64 8/8/64 31/8/64 30/5/64 
f 8/8/65 7/7/65 32/7/65 31/8/65 
f 7/7/66 6/6/66 29/6/66 32/7/66 
# 46 polygons

#
# object Plane001
#

v  -26.1751 0.0000 9.6434
v  -26.1751 0.0000 19.2869
v  -13.0875 0.0000 19.2869
v  -13.0875 0.0000 9.6434
v  0.0000 0.0000 19.2869
v  0.0000 0.0000 9.6434
v  13.0875 0.0000 19.2869
v  13.0875 0.0000 9.6434
v  26.1751 0.0000 19.2869
v  26.1751 0.0000 9.6434
v  -26.1751 0.0000 -0.0000
v  -13.0875 0.0000 -0.0000
v  0.0000 0.0000 -0.0000
v  13.0875 0.0000 -0.0000
v  26.1751 0.0000 -0.0000
v  -26.1751 0.0000 -9.6434
v  -13.0875 0.0000 -9.6434
v  0.0000 0.0000 -9.6434
v  13.0875 0.0000 -9.6434
v  26.1751 0.0000 -9.6434
v  -26.1751 0.0000 -19.2869
v  -13.0875 0.0000 -19.2869
v  0.0000 0.0000 -19.2869
v  13.0875 0.0000 -19.2869
v  26.1751 0.0000 -19.2869
# 25 vertices

vn 0.0000 1.0000 -0.0000
# 1 vertex normals

vt 0.0000 0.2500 0.5000
vt 0.0000 0.0000 0.5000
vt 0.2500 0.0000 0.5000
vt 0.2500 0.2500 0.5000
vt 0.5000 0.0000 0.5000
vt 0.5000 0.2500 0.5000
vt 0.7500 0.0000 0.5000
vt 0.7500 0.2500 0.5000
vt 1.0000 0.0000 0.5000
vt 1.0000 0.2500 0.5000
vt 0.0000 0.5000 0.5000
vt 0.2500 0.5000 0.5000
vt 0.5000 0.5000 0.5000
vt 0.7500 0.5000 0.5000
vt 1.0000 0.5000 0.5000
vt 0.0000 0.7500 0.5000
vt 0.2500 0.7500 0.5000
vt 0.5000 0.7500 0.5000
vt 0.7500 0.7500 0.5000
vt 1.0000 0.7500 0.5000
vt 0.0000 1.0000 0.5000
vt 0.2500 1.0000 0.5000
vt 0.5000 1.0000 0.5000
vt 0.7500 1.0000 0.5000
vt 1.0000 1.0000 0.5000
# 25 texture coords

g Plane001
usemtl 02___Default
s 1
f 49/77/67 50/78/67 51/79/67 52/80/67 
f 52/80/67 51/79/67 53/81/67 54/82/67 
f 54/82/67 53/81/67 55/83/67 56/84/67 
f 56/84/67 55/83/67 57/85/67 58/86/67 
f 59/87/67 49/77/67 52/80/67 60/88/67 
f 60/88/67 52/80/67 54/82/67 61/89/67 
f 61/89/67 54/82/67 56/84/67 62/90/67 
f 62/90/67 56/84/67 58/86/67 63/91/67 
f 64/92/67 59/87/67 60/88/67 65/93/67 
f 65/93/67 60/88/67 61/89/67 66/94/67 
f 66/94/67 61/89/67 62/90/67 67/95/67 
f 67/95/67 62/90/67 63/91/67 68/96/67 
f 69/97/67 64/92/67 65/93/67 70/98/67 
f 70/98/67 65/93/67 66/94/67 71/99/67 
f 71/99/67 66/94/67 67/95/67 72/100/67 
f 72/100/67 67/95/67 68/96/67 73/101/67 
# 16 polygons

