# 3ds Max Wavefront OBJ Exporter v0.97b - (c)2007 guruware
# File Created: 01.06.2024 16:27:35

mtllib Test_Map_BlockOut_low.mtl

#
# object Plane001
#

v  -7.8525 0.0000 2.8930
v  -7.8525 0.0000 5.7861
v  -3.9263 0.0000 5.7861
v  -3.9263 0.0000 2.8930
v  0.0000 0.0000 5.7861
v  0.0000 0.0000 2.8930
v  3.9263 0.0000 5.7861
v  3.9263 0.0000 2.8930
v  7.8525 0.0000 5.7861
v  7.8525 0.0000 2.8930
v  -7.8525 0.0000 -0.0000
v  -3.9263 0.0000 -0.0000
v  0.0000 0.0000 -0.0000
v  3.9263 0.0000 -0.0000
v  7.8525 0.0000 -0.0000
v  -7.8525 0.0000 -2.8930
v  -3.9263 0.0000 -2.8930
v  0.0000 0.0000 -2.8930
v  3.9263 0.0000 -2.8930
v  7.8525 0.0000 -2.8930
v  -7.8525 0.0000 -5.7861
v  -3.9263 0.0000 -5.7861
v  0.0000 0.0000 -5.7861
v  3.9263 0.0000 -5.7861
v  7.8525 0.0000 -5.7861
# 25 vertices

vn 0.0000 1.0000 -0.0000
# 1 vertex normals

vt 0.0000 0.2500 0.5000
vt 0.0000 0.0000 0.5000
vt 0.2500 0.0000 0.5000
vt 0.2500 0.2500 0.5000
vt 0.5000 0.0000 0.5000
vt 0.5000 0.2500 0.5000
vt 0.7500 0.0000 0.5000
vt 0.7500 0.2500 0.5000
vt 1.0000 0.0000 0.5000
vt 1.0000 0.2500 0.5000
vt 0.0000 0.5000 0.5000
vt 0.2500 0.5000 0.5000
vt 0.5000 0.5000 0.5000
vt 0.7500 0.5000 0.5000
vt 1.0000 0.5000 0.5000
vt 0.0000 0.7500 0.5000
vt 0.2500 0.7500 0.5000
vt 0.5000 0.7500 0.5000
vt 0.7500 0.7500 0.5000
vt 1.0000 0.7500 0.5000
vt 0.0000 1.0000 0.5000
vt 0.2500 1.0000 0.5000
vt 0.5000 1.0000 0.5000
vt 0.7500 1.0000 0.5000
vt 1.0000 1.0000 0.5000
# 25 texture coords

g Plane001
usemtl 02___Default
s 1
f 1/1/1 2/2/1 3/3/1 4/4/1 
f 4/4/1 3/3/1 5/5/1 6/6/1 
f 6/6/1 5/5/1 7/7/1 8/8/1 
f 8/8/1 7/7/1 9/9/1 10/10/1 
f 11/11/1 1/1/1 4/4/1 12/12/1 
f 12/12/1 4/4/1 6/6/1 13/13/1 
f 13/13/1 6/6/1 8/8/1 14/14/1 
f 14/14/1 8/8/1 10/10/1 15/15/1 
f 16/16/1 11/11/1 12/12/1 17/17/1 
f 17/17/1 12/12/1 13/13/1 18/18/1 
f 18/18/1 13/13/1 14/14/1 19/19/1 
f 19/19/1 14/14/1 15/15/1 20/20/1 
f 21/21/1 16/16/1 17/17/1 22/22/1 
f 22/22/1 17/17/1 18/18/1 23/23/1 
f 23/23/1 18/18/1 19/19/1 24/24/1 
f 24/24/1 19/19/1 20/20/1 25/25/1 
# 16 polygons

#
# object Box001
#

v  2.4604 0.0000 -1.9270
v  2.4604 0.0000 -5.3190
v  2.7797 0.0000 -5.3190
v  2.7797 0.0000 -1.9270
v  2.4604 1.8000 -1.9270
v  2.7797 1.8000 -1.9270
v  2.7797 1.8000 -5.3190
v  2.4604 1.8000 -5.3190
# 8 vertices

vn 0.0000 -1.0000 -0.0000
vn 0.0000 1.0000 -0.0000
vn 0.0000 0.0000 1.0000
vn 1.0000 0.0000 -0.0000
vn 0.0000 0.0000 -1.0000
vn -1.0000 0.0000 -0.0000
# 6 vertex normals

vt 1.0000 0.0000 0.0000
vt 1.0000 1.0000 0.0000
vt 0.0000 1.0000 0.0000
vt 0.0000 0.0000 0.0000
# 4 texture coords

g Box001
usemtl wire_138008110
s 2
f 26/26/2 27/27/2 28/28/2 29/29/2 
s 4
f 30/29/3 31/26/3 32/27/3 33/28/3 
s 8
f 26/29/4 29/26/4 31/27/4 30/28/4 
s 16
f 29/29/5 28/26/5 32/27/5 31/28/5 
s 32
f 28/29/6 27/26/6 33/27/6 32/28/6 
s 64
f 27/29/7 26/26/7 30/27/7 33/28/7 
# 6 polygons

#
# object Box002
#

v  -6.0698 0.0000 1.4674
v  -6.0698 0.0000 -5.3326
v  -5.7506 0.0000 -5.3326
v  -5.7506 0.0000 1.4674
v  -6.0698 1.8000 1.4674
v  -5.7506 1.8000 1.4674
v  -5.7506 1.8000 -5.3326
v  -6.0698 1.8000 -5.3326
# 8 vertices

vn 0.0000 -1.0000 -0.0000
vn 0.0000 1.0000 -0.0000
vn 0.0000 0.0000 1.0000
vn 1.0000 0.0000 -0.0000
vn 0.0000 0.0000 -1.0000
vn -1.0000 0.0000 -0.0000
# 6 vertex normals

vt 1.0000 0.0000 0.0000
vt 1.0000 1.0000 0.0000
vt 0.0000 1.0000 0.0000
vt 0.0000 0.0000 0.0000
# 4 texture coords

g Box002
usemtl wire_138008110
s 2
f 34/30/8 35/31/8 36/32/8 37/33/8 
s 4
f 38/33/9 39/30/9 40/31/9 41/32/9 
s 8
f 34/33/10 37/30/10 39/31/10 38/32/10 
s 16
f 37/33/11 36/30/11 40/31/11 39/32/11 
s 32
f 36/33/12 35/30/12 41/31/12 40/32/12 
s 64
f 35/33/13 34/30/13 38/31/13 41/32/13 
# 6 polygons

#
# object Box003
#

v  -5.9868 0.0000 -5.6195
v  2.7132 0.0000 -5.6195
v  2.7132 0.0000 -5.3002
v  -5.9868 0.0000 -5.3002
v  -5.9868 1.8000 -5.6195
v  -5.9868 1.8000 -5.3002
v  2.7132 1.8000 -5.3002
v  2.7132 1.8000 -5.6195
# 8 vertices

vn 0.0000 -1.0000 -0.0000
vn 0.0000 1.0000 -0.0000
vn -1.0000 0.0000 -0.0000
vn -0.0000 0.0000 1.0000
vn 1.0000 0.0000 0.0000
vn 0.0000 0.0000 -1.0000
# 6 vertex normals

vt 1.0000 0.0000 0.0000
vt 1.0000 1.0000 0.0000
vt 0.0000 1.0000 0.0000
vt 0.0000 0.0000 0.0000
# 4 texture coords

g Box003
usemtl wire_138008110
s 2
f 42/34/14 43/35/14 44/36/14 45/37/14 
s 4
f 46/37/15 47/34/15 48/35/15 49/36/15 
s 8
f 42/37/16 45/34/16 47/35/16 46/36/16 
s 16
f 45/37/17 44/34/17 48/35/17 47/36/17 
s 32
f 44/37/18 43/34/18 49/35/18 48/36/18 
s 64
f 43/37/19 42/34/19 46/35/19 49/36/19 
# 6 polygons

#
# object Box004
#

v  2.4807 0.0000 -2.2112
v  7.4807 0.0000 -2.2112
v  7.4807 0.0000 -1.8919
v  2.4807 0.0000 -1.8919
v  2.4807 1.8000 -2.2112
v  2.4807 1.8000 -1.8919
v  7.4807 1.8000 -1.8919
v  7.4807 1.8000 -2.2112
# 8 vertices

vn 0.0000 -1.0000 -0.0000
vn 0.0000 1.0000 -0.0000
vn -1.0000 0.0000 -0.0000
vn -0.0000 0.0000 1.0000
vn 1.0000 0.0000 0.0000
vn 0.0000 0.0000 -1.0000
# 6 vertex normals

vt 1.0000 0.0000 0.0000
vt 1.0000 1.0000 0.0000
vt 0.0000 1.0000 0.0000
vt 0.0000 0.0000 0.0000
# 4 texture coords

g Box004
usemtl wire_138008110
s 2
f 50/38/20 51/39/20 52/40/20 53/41/20 
s 4
f 54/41/21 55/38/21 56/39/21 57/40/21 
s 8
f 50/41/22 53/38/22 55/39/22 54/40/22 
s 16
f 53/41/23 52/38/23 56/39/23 55/40/23 
s 32
f 52/41/24 51/38/24 57/39/24 56/40/24 
s 64
f 51/41/25 50/38/25 54/39/25 57/40/25 
# 6 polygons

#
# object Box005
#

v  3.2707 0.0000 2.0922
v  7.4707 0.0000 2.0922
v  7.4707 0.0000 2.4115
v  3.2707 0.0000 2.4115
v  3.2707 1.8000 2.0922
v  3.2707 1.8000 2.4115
v  7.4707 1.8000 2.4115
v  7.4707 1.8000 2.0922
# 8 vertices

vn 0.0000 -1.0000 -0.0000
vn 0.0000 1.0000 -0.0000
vn -1.0000 0.0000 -0.0000
vn -0.0000 0.0000 1.0000
vn 1.0000 0.0000 0.0000
vn 0.0000 0.0000 -1.0000
# 6 vertex normals

vt 1.0000 0.0000 0.0000
vt 1.0000 1.0000 0.0000
vt 0.0000 1.0000 0.0000
vt 0.0000 0.0000 0.0000
# 4 texture coords

g Box005
usemtl wire_138008110
s 2
f 58/42/26 59/43/26 60/44/26 61/45/26 
s 4
f 62/45/27 63/42/27 64/43/27 65/44/27 
s 8
f 58/45/28 61/42/28 63/43/28 62/44/28 
s 16
f 61/45/29 60/42/29 64/43/29 63/44/29 
s 32
f 60/45/30 59/42/30 65/43/30 64/44/30 
s 64
f 59/45/31 58/42/31 62/43/31 65/44/31 
# 6 polygons

#
# object Box006
#

v  1.6702 0.0000 5.4465
v  7.6702 0.0000 5.4465
v  7.6702 0.0000 5.7658
v  1.6702 0.0000 5.7658
v  1.6702 1.8000 5.4465
v  1.6702 1.8000 5.7658
v  7.6702 1.8000 5.7658
v  7.6702 1.8000 5.4465
# 8 vertices

vn 0.0000 -1.0000 -0.0000
vn 0.0000 1.0000 -0.0000
vn -1.0000 0.0000 -0.0000
vn -0.0000 0.0000 1.0000
vn 1.0000 0.0000 0.0000
vn 0.0000 0.0000 -1.0000
# 6 vertex normals

vt 1.0000 0.0000 0.0000
vt 1.0000 1.0000 0.0000
vt 0.0000 1.0000 0.0000
vt 0.0000 0.0000 0.0000
# 4 texture coords

g Box006
usemtl wire_138008110
s 2
f 66/46/32 67/47/32 68/48/32 69/49/32 
s 4
f 70/49/33 71/46/33 72/47/33 73/48/33 
s 8
f 66/49/34 69/46/34 71/47/34 70/48/34 
s 16
f 69/49/35 68/46/35 72/47/35 71/48/35 
s 32
f 68/49/36 67/46/36 73/47/36 72/48/36 
s 64
f 67/49/37 66/46/37 70/47/37 73/48/37 
# 6 polygons

#
# object Box007
#

v  7.4590 0.0000 5.7982
v  7.4590 0.0000 -2.2018
v  7.7782 0.0000 -2.2018
v  7.7782 0.0000 5.7982
v  7.4590 1.8000 5.7982
v  7.7782 1.8000 5.7982
v  7.7782 1.8000 -2.2018
v  7.4590 1.8000 -2.2018
# 8 vertices

vn 0.0000 -1.0000 -0.0000
vn 0.0000 1.0000 -0.0000
vn 0.0000 0.0000 1.0000
vn 1.0000 0.0000 -0.0000
vn 0.0000 0.0000 -1.0000
vn -1.0000 0.0000 -0.0000
# 6 vertex normals

vt 1.0000 0.0000 0.0000
vt 1.0000 1.0000 0.0000
vt 0.0000 1.0000 0.0000
vt 0.0000 0.0000 0.0000
# 4 texture coords

g Box007
usemtl wire_138008110
s 2
f 74/50/38 75/51/38 76/52/38 77/53/38 
s 4
f 78/53/39 79/50/39 80/51/39 81/52/39 
s 8
f 74/53/40 77/50/40 79/51/40 78/52/40 
s 16
f 77/53/41 76/50/41 80/51/41 79/52/41 
s 32
f 76/53/42 75/50/42 81/51/42 80/52/42 
s 64
f 75/53/43 74/50/43 78/51/43 81/52/43 
# 6 polygons

#
# object Box008
#

v  3.1701 0.0000 3.2131
v  3.1701 0.0000 1.4131
v  3.4894 0.0000 1.4131
v  3.4894 0.0000 3.2131
v  3.1701 1.8000 3.2131
v  3.4894 1.8000 3.2131
v  3.4894 1.8000 1.4131
v  3.1701 1.8000 1.4131
# 8 vertices

vn 0.0000 -1.0000 -0.0000
vn 0.0000 1.0000 -0.0000
vn 0.0000 0.0000 1.0000
vn 1.0000 0.0000 -0.0000
vn 0.0000 0.0000 -1.0000
vn -1.0000 0.0000 -0.0000
# 6 vertex normals

vt 1.0000 0.0000 0.0000
vt 1.0000 1.0000 0.0000
vt 0.0000 1.0000 0.0000
vt 0.0000 0.0000 0.0000
# 4 texture coords

g Box008
usemtl wire_138008110
s 2
f 82/54/44 83/55/44 84/56/44 85/57/44 
s 4
f 86/57/45 87/54/45 88/55/45 89/56/45 
s 8
f 82/57/46 85/54/46 87/55/46 86/56/46 
s 16
f 85/57/47 84/54/47 88/55/47 87/56/47 
s 32
f 84/57/48 83/54/48 89/55/48 88/56/48 
s 64
f 83/57/49 82/54/49 86/55/49 89/56/49 
# 6 polygons

#
# object Box009
#

v  3.1701 0.0000 5.4802
v  3.1701 0.0000 4.4802
v  3.4894 0.0000 4.4802
v  3.4894 0.0000 5.4802
v  3.1701 1.8000 5.4802
v  3.4894 1.8000 5.4802
v  3.4894 1.8000 4.4802
v  3.1701 1.8000 4.4802
# 8 vertices

vn 0.0000 -1.0000 -0.0000
vn 0.0000 1.0000 -0.0000
vn 0.0000 0.0000 1.0000
vn 1.0000 0.0000 -0.0000
vn 0.0000 0.0000 -1.0000
vn -1.0000 0.0000 -0.0000
# 6 vertex normals

vt 1.0000 0.0000 0.0000
vt 1.0000 1.0000 0.0000
vt 0.0000 1.0000 0.0000
vt 0.0000 0.0000 0.0000
# 4 texture coords

g Box009
usemtl wire_138008110
s 2
f 90/58/50 91/59/50 92/60/50 93/61/50 
s 4
f 94/61/51 95/58/51 96/59/51 97/60/51 
s 8
f 90/61/52 93/58/52 95/59/52 94/60/52 
s 16
f 93/61/53 92/58/53 96/59/53 95/60/53 
s 32
f 92/61/54 91/58/54 97/59/54 96/60/54 
s 64
f 91/61/55 90/58/55 94/59/55 97/60/55 
# 6 polygons

#
# object Box010
#

v  3.1701 0.0000 -1.0777
v  3.1701 0.0000 -2.0777
v  3.4894 0.0000 -2.0777
v  3.4894 0.0000 -1.0777
v  3.1701 1.8000 -1.0777
v  3.4894 1.8000 -1.0777
v  3.4894 1.8000 -2.0777
v  3.1701 1.8000 -2.0777
# 8 vertices

vn 0.0000 -1.0000 -0.0000
vn 0.0000 1.0000 -0.0000
vn 0.0000 0.0000 1.0000
vn 1.0000 0.0000 -0.0000
vn 0.0000 0.0000 -1.0000
vn -1.0000 0.0000 -0.0000
# 6 vertex normals

vt 1.0000 0.0000 0.0000
vt 1.0000 1.0000 0.0000
vt 0.0000 1.0000 0.0000
vt 0.0000 0.0000 0.0000
# 4 texture coords

g Box010
usemtl wire_138008110
s 2
f 98/62/56 99/63/56 100/64/56 101/65/56 
s 4
f 102/65/57 103/62/57 104/63/57 105/64/57 
s 8
f 98/65/58 101/62/58 103/63/58 102/64/58 
s 16
f 101/65/59 100/62/59 104/63/59 103/64/59 
s 32
f 100/65/60 99/62/60 105/63/60 104/64/60 
s 64
f 99/65/61 98/62/61 102/63/61 105/64/61 
# 6 polygons

#
# object Box011
#

v  -5.8252 0.0000 5.4465
v  0.8748 0.0000 5.4465
v  0.8748 0.0000 5.7658
v  -5.8252 0.0000 5.7658
v  -5.8252 1.8000 5.4465
v  -5.8252 1.8000 5.7658
v  0.8748 1.8000 5.7658
v  0.8748 1.8000 5.4465
# 8 vertices

vn 0.0000 -1.0000 -0.0000
vn 0.0000 1.0000 -0.0000
vn -1.0000 0.0000 -0.0000
vn -0.0000 0.0000 1.0000
vn 1.0000 0.0000 0.0000
vn 0.0000 0.0000 -1.0000
# 6 vertex normals

vt 1.0000 0.0000 0.0000
vt 1.0000 1.0000 0.0000
vt 0.0000 1.0000 0.0000
vt 0.0000 0.0000 0.0000
# 4 texture coords

g Box011
usemtl wire_138008110
s 2
f 106/66/62 107/67/62 108/68/62 109/69/62 
s 4
f 110/69/63 111/66/63 112/67/63 113/68/63 
s 8
f 106/69/64 109/66/64 111/67/64 110/68/64 
s 16
f 109/69/65 108/66/65 112/67/65 111/68/65 
s 32
f 108/69/66 107/66/66 113/67/66 112/68/66 
s 64
f 107/69/67 106/66/67 110/67/67 113/68/67 
# 6 polygons

#
# object Box012
#

v  -5.8497 0.0000 5.7521
v  -5.8497 0.0000 4.7521
v  -5.5305 0.0000 4.7521
v  -5.5305 0.0000 5.7521
v  -5.8497 1.8000 5.7521
v  -5.5305 1.8000 5.7521
v  -5.5305 1.8000 4.7521
v  -5.8497 1.8000 4.7521
# 8 vertices

vn 0.0000 -1.0000 -0.0000
vn 0.0000 1.0000 -0.0000
vn 0.0000 0.0000 1.0000
vn 1.0000 0.0000 -0.0000
vn 0.0000 0.0000 -1.0000
vn -1.0000 0.0000 -0.0000
# 6 vertex normals

vt 1.0000 0.0000 0.0000
vt 1.0000 1.0000 0.0000
vt 0.0000 1.0000 0.0000
vt 0.0000 0.0000 0.0000
# 4 texture coords

g Box012
usemtl wire_138008110
s 2
f 114/70/68 115/71/68 116/72/68 117/73/68 
s 4
f 118/73/69 119/70/69 120/71/69 121/72/69 
s 8
f 114/73/70 117/70/70 119/71/70 118/72/70 
s 16
f 117/73/71 116/70/71 120/71/71 119/72/71 
s 32
f 116/73/72 115/70/72 121/71/72 120/72/72 
s 64
f 115/73/73 114/70/73 118/71/73 121/72/73 
# 6 polygons

#
# object Box013
#

v  -6.7827 0.0000 4.8579
v  -6.7827 0.0000 1.3579
v  -6.4634 0.0000 1.3579
v  -6.4634 0.0000 4.8579
v  -6.7827 1.8000 4.8579
v  -6.4634 1.8000 4.8579
v  -6.4634 1.8000 1.3579
v  -6.7827 1.8000 1.3579
# 8 vertices

vn 0.0000 -1.0000 -0.0000
vn 0.0000 1.0000 -0.0000
vn 0.0000 0.0000 1.0000
vn 1.0000 0.0000 -0.0000
vn 0.0000 0.0000 -1.0000
vn -1.0000 0.0000 -0.0000
# 6 vertex normals

vt 1.0000 0.0000 0.0000
vt 1.0000 1.0000 0.0000
vt 0.0000 1.0000 0.0000
vt 0.0000 0.0000 0.0000
# 4 texture coords

g Box013
usemtl wire_138008110
s 2
f 122/74/74 123/75/74 124/76/74 125/77/74 
s 4
f 126/77/75 127/74/75 128/75/75 129/76/75 
s 8
f 122/77/76 125/74/76 127/75/76 126/76/76 
s 16
f 125/77/77 124/74/77 128/75/77 127/76/77 
s 32
f 124/77/78 123/74/78 129/75/78 128/76/78 
s 64
f 123/77/79 122/74/79 126/75/79 129/76/79 
# 6 polygons

#
# object Box014
#

v  -5.7842 0.0000 5.0716
v  -6.7842 0.0000 5.0716
v  -6.7842 0.0000 4.7524
v  -5.7842 0.0000 4.7524
v  -5.7842 1.8000 5.0716
v  -5.7842 1.8000 4.7524
v  -6.7842 1.8000 4.7524
v  -6.7842 1.8000 5.0716
# 8 vertices

vn 0.0000 -1.0000 -0.0000
vn 0.0000 1.0000 -0.0000
vn 1.0000 0.0000 -0.0000
vn -0.0000 0.0000 -1.0000
vn -1.0000 0.0000 0.0000
vn 0.0000 0.0000 1.0000
# 6 vertex normals

vt 1.0000 0.0000 0.0000
vt 1.0000 1.0000 0.0000
vt 0.0000 1.0000 0.0000
vt 0.0000 0.0000 0.0000
# 4 texture coords

g Box014
usemtl wire_138008110
s 2
f 130/78/80 131/79/80 132/80/80 133/81/80 
s 4
f 134/81/81 135/78/81 136/79/81 137/80/81 
s 8
f 130/81/82 133/78/82 135/79/82 134/80/82 
s 16
f 133/81/83 132/78/83 136/79/83 135/80/83 
s 32
f 132/81/84 131/78/84 137/79/84 136/80/84 
s 64
f 131/81/85 130/78/85 134/79/85 137/80/85 
# 6 polygons

#
# object Box015
#

v  -5.7680 0.0000 1.4457
v  -6.7680 0.0000 1.4457
v  -6.7680 0.0000 1.1264
v  -5.7680 0.0000 1.1264
v  -5.7680 1.8000 1.4457
v  -5.7680 1.8000 1.1264
v  -6.7680 1.8000 1.1264
v  -6.7680 1.8000 1.4457
# 8 vertices

vn 0.0000 -1.0000 -0.0000
vn 0.0000 1.0000 -0.0000
vn 1.0000 0.0000 -0.0000
vn -0.0000 0.0000 -1.0000
vn -1.0000 0.0000 0.0000
vn 0.0000 0.0000 1.0000
# 6 vertex normals

vt 1.0000 0.0000 0.0000
vt 1.0000 1.0000 0.0000
vt 0.0000 1.0000 0.0000
vt 0.0000 0.0000 0.0000
# 4 texture coords

g Box015
usemtl wire_138008110
s 2
f 138/82/86 139/83/86 140/84/86 141/85/86 
s 4
f 142/85/87 143/82/87 144/83/87 145/84/87 
s 8
f 138/85/88 141/82/88 143/83/88 142/84/88 
s 16
f 141/85/89 140/82/89 144/83/89 143/84/89 
s 32
f 140/85/90 139/82/90 145/83/90 144/84/90 
s 64
f 139/85/91 138/82/91 142/83/91 145/84/91 
# 6 polygons

#
# object Box016
#

v  -5.9699 0.0000 0.4547
v  0.0301 0.0000 0.4547
v  0.0301 0.0000 0.7739
v  -5.9699 0.0000 0.7739
v  -5.9699 0.9000 0.4547
v  -5.9699 0.9000 0.7739
v  0.0301 0.9000 0.7739
v  0.0301 0.9000 0.4547
# 8 vertices

vn 0.0000 -1.0000 -0.0000
vn 0.0000 1.0000 -0.0000
vn -1.0000 0.0000 -0.0000
vn -0.0000 0.0000 1.0000
vn 1.0000 0.0000 0.0000
vn 0.0000 0.0000 -1.0000
# 6 vertex normals

vt 1.0000 0.0000 0.0000
vt 1.0000 1.0000 0.0000
vt 0.0000 1.0000 0.0000
vt 0.0000 0.0000 0.0000
# 4 texture coords

g Box016
usemtl wire_087225198
s 2
f 146/86/92 147/87/92 148/88/92 149/89/92 
s 4
f 150/89/93 151/86/93 152/87/93 153/88/93 
s 8
f 146/89/94 149/86/94 151/87/94 150/88/94 
s 16
f 149/89/95 148/86/95 152/87/95 151/88/95 
s 32
f 148/89/96 147/86/96 153/87/96 152/88/96 
s 64
f 147/89/97 146/86/97 150/87/97 153/88/97 
# 6 polygons

#
# object Box017
#

v  0.2493 0.0000 -0.2295
v  0.2493 0.0000 0.7705
v  -0.0699 0.0000 0.7705
v  -0.0699 0.0000 -0.2295
v  0.2493 0.9000 -0.2295
v  -0.0699 0.9000 -0.2295
v  -0.0699 0.9000 0.7705
v  0.2493 0.9000 0.7705
# 8 vertices

vn 0.0000 -1.0000 -0.0000
vn 0.0000 1.0000 -0.0000
vn 0.0000 0.0000 -1.0000
vn -1.0000 0.0000 -0.0000
vn -0.0000 0.0000 1.0000
vn 1.0000 0.0000 0.0000
# 6 vertex normals

vt 1.0000 0.0000 0.0000
vt 1.0000 1.0000 0.0000
vt 0.0000 1.0000 0.0000
vt 0.0000 0.0000 0.0000
# 4 texture coords

g Box017
usemtl wire_087225198
s 2
f 154/90/98 155/91/98 156/92/98 157/93/98 
s 4
f 158/93/99 159/90/99 160/91/99 161/92/99 
s 8
f 154/93/100 157/90/100 159/91/100 158/92/100 
s 16
f 157/93/101 156/90/101 160/91/101 159/92/101 
s 32
f 156/93/102 155/90/102 161/91/102 160/92/102 
s 64
f 155/93/103 154/90/103 158/91/103 161/92/103 
# 6 polygons

#
# object Box018
#

v  0.2493 0.0000 -5.4334
v  0.2493 0.0000 -4.4334
v  -0.0699 0.0000 -4.4334
v  -0.0699 0.0000 -5.4334
v  0.2493 0.9000 -5.4334
v  -0.0699 0.9000 -5.4334
v  -0.0699 0.9000 -4.4334
v  0.2493 0.9000 -4.4334
# 8 vertices

vn 0.0000 -1.0000 -0.0000
vn 0.0000 1.0000 -0.0000
vn 0.0000 0.0000 -1.0000
vn -1.0000 0.0000 -0.0000
vn -0.0000 0.0000 1.0000
vn 1.0000 0.0000 0.0000
# 6 vertex normals

vt 1.0000 0.0000 0.0000
vt 1.0000 1.0000 0.0000
vt 0.0000 1.0000 0.0000
vt 0.0000 0.0000 0.0000
# 4 texture coords

g Box018
usemtl wire_087225198
s 2
f 162/94/104 163/95/104 164/96/104 165/97/104 
s 4
f 166/97/105 167/94/105 168/95/105 169/96/105 
s 8
f 162/97/106 165/94/106 167/95/106 166/96/106 
s 16
f 165/97/107 164/94/107 168/95/107 167/96/107 
s 32
f 164/97/108 163/94/108 169/95/108 168/96/108 
s 64
f 163/97/109 162/94/109 166/95/109 169/96/109 
# 6 polygons

#
# object Box019
#

v  -4.9409 0.0000 -1.1073
v  -4.9409 0.0000 -3.6298
v  -0.7529 0.0000 -3.6298
v  -0.7529 0.0000 -1.1073
v  -4.9409 0.9000 -1.1073
v  -0.7529 0.9000 -1.1073
v  -0.7529 0.9000 -3.6298
v  -4.9409 0.9000 -3.6298
# 8 vertices

vn 0.0000 -1.0000 -0.0000
vn 0.0000 1.0000 -0.0000
vn 0.0000 0.0000 1.0000
vn 1.0000 0.0000 -0.0000
vn 0.0000 0.0000 -1.0000
vn -1.0000 0.0000 -0.0000
# 6 vertex normals

vt 1.0000 0.0000 0.0000
vt 1.0000 1.0000 0.0000
vt 0.0000 1.0000 0.0000
vt 0.0000 0.0000 0.0000
# 4 texture coords

g Box019
usemtl wire_000000000
s 2
f 170/98/110 171/99/110 172/100/110 173/101/110 
s 4
f 174/101/111 175/98/111 176/99/111 177/100/111 
s 8
f 170/101/112 173/98/112 175/99/112 174/100/112 
s 16
f 173/101/113 172/98/113 176/99/113 175/100/113 
s 32
f 172/101/114 171/98/114 177/99/114 176/100/114 
s 64
f 171/101/115 170/98/115 174/99/115 177/100/115 
# 6 polygons

#
# object Box020
#

v  -4.9571 0.0000 4.0025
v  -4.9571 0.0000 2.2723
v  -1.5775 0.0000 2.2723
v  -1.5775 0.0000 4.0025
v  -4.9571 0.9000 4.0025
v  -1.5775 0.9000 4.0025
v  -1.5775 0.9000 2.2723
v  -4.9571 0.9000 2.2723
# 8 vertices

vn 0.0000 -1.0000 -0.0000
vn 0.0000 1.0000 -0.0000
vn 0.0000 0.0000 1.0000
vn 1.0000 0.0000 -0.0000
vn 0.0000 0.0000 -1.0000
vn -1.0000 0.0000 -0.0000
# 6 vertex normals

vt 1.0000 0.0000 0.0000
vt 1.0000 1.0000 0.0000
vt 0.0000 1.0000 0.0000
vt 0.0000 0.0000 0.0000
# 4 texture coords

g Box020
usemtl wire_177088027
s 2
f 178/102/116 179/103/116 180/104/116 181/105/116 
s 4
f 182/105/117 183/102/117 184/103/117 185/104/117 
s 8
f 178/105/118 181/102/118 183/103/118 182/104/118 
s 16
f 181/105/119 180/102/119 184/103/119 183/104/119 
s 32
f 180/105/120 179/102/120 185/103/120 184/104/120 
s 64
f 179/105/121 178/102/121 182/103/121 185/104/121 
# 6 polygons

