# Blender 4.1.1
# www.blender.org
o chair
v 0.151293 0.000000 -0.149998
v 0.113793 0.400000 -0.112498
v 0.338793 0.000000 -0.149998
v 0.301293 0.400000 -0.112498
v 0.151293 0.000000 -0.337498
v 0.113793 0.400000 -0.299998
v 0.151293 0.000000 0.337502
v 0.113793 0.400000 0.300002
v 0.151293 0.000000 0.150002
v 0.113793 0.400000 0.112502
v 0.338793 0.000000 0.150002
v 0.301293 0.400000 0.112502
v 0.338793 0.000000 -0.328123
v 0.329418 0.000000 -0.337498
v 0.291918 0.400000 -0.299998
v 0.301293 0.400000 -0.290623
v 0.329418 0.000000 0.337502
v 0.338793 0.000000 0.328127
v 0.301293 0.400000 0.290627
v 0.291918 0.400000 0.300002
v -0.336207 0.000000 -0.149998
v -0.298707 0.400000 -0.112498
v -0.148707 0.000000 -0.149998
v -0.111207 0.400000 -0.112498
v -0.148707 0.000000 -0.337498
v -0.111207 0.400000 -0.299998
v -0.148707 0.000000 0.337502
v -0.111207 0.400000 0.300002
v -0.336207 0.000000 0.150002
v -0.298707 0.400000 0.112502
v -0.148707 0.000000 0.150002
v -0.111207 0.400000 0.112502
v -0.326832 0.000000 -0.337498
v -0.336207 0.000000 -0.328123
v -0.298707 0.400000 -0.290623
v -0.289332 0.400000 -0.299998
v -0.336207 0.000000 0.328127
v -0.326832 0.000000 0.337502
v -0.289332 0.400000 0.300002
v -0.298707 0.400000 0.290627
v -0.298707 0.100000 0.262502
v -0.223707 0.100000 0.262502
v -0.223707 0.200000 0.262502
v -0.298707 0.100000 -0.262498
v -0.223707 0.100000 -0.262498
v -0.223707 0.200000 -0.262498
v 0.226293 0.100000 0.262502
v 0.226293 0.200000 0.262502
v 0.301293 0.100000 0.262502
v 0.226293 0.100000 -0.262498
v 0.226293 0.200000 -0.262498
v 0.301293 0.100000 -0.262498
v -0.298707 0.187500 0.262502
v -0.289332 0.200000 0.262502
v -0.289332 0.200000 -0.262498
v -0.298707 0.187500 -0.262498
v 0.291918 0.200000 0.262502
v 0.301293 0.187500 0.262502
v 0.301293 0.187500 -0.262498
v 0.291918 0.200000 -0.262498
v 0.000000 0.300000 -0.371874
v -0.017457 0.475000 -0.374998
v -0.017457 0.500000 -0.356248
v -0.017457 0.475000 0.375002
v -0.017457 0.500000 0.356252
v 0.000000 0.300000 0.371878
v -0.354957 0.300000 0.368748
v -0.354957 0.475000 0.375002
v -0.354957 0.500000 0.356252
v -0.373707 0.475000 0.356252
v -0.373707 0.475000 -0.356248
v -0.354957 0.500000 -0.356248
v -0.354957 0.475000 -0.374998
v -0.354957 0.300000 -0.375004
v -0.167457 0.475000 -0.374998
v -0.167457 0.500000 -0.356248
v -0.167457 0.300000 -0.375004
v -0.070928 0.300000 0.368748
v -0.213986 0.300000 0.368748
v -0.167457 0.300000 0.324723
v -0.213986 0.500000 0.356252
v -0.070928 0.500000 0.356252
v -0.167457 0.500000 0.324723
v -0.213986 0.475000 0.375002
v -0.070928 0.475000 0.375002
v -0.167457 0.475000 0.342795
v 0.357543 0.300000 0.375008
v 0.357543 0.475000 0.375002
v 0.376293 0.475000 0.356252
v 0.357543 0.500000 0.356252
v 0.376293 0.475000 -0.356248
v 0.357543 0.475000 -0.374998
v 0.357543 0.500000 -0.356248
v 0.357543 0.300000 -0.368744
v 0.020043 0.475000 -0.374998
v 0.020043 0.500000 -0.356248
v 0.001293 0.475000 -0.356248
v 0.001293 0.475000 0.356252
v 0.020043 0.500000 0.356252
v 0.020043 0.475000 0.375002
v 0.207543 0.475000 0.375002
v 0.207543 0.500000 0.356252
v 0.207543 0.300000 0.375008
v 0.274072 0.300000 -0.368744
v 0.141014 0.300000 -0.368744
v 0.207543 0.300000 -0.304719
v 0.141014 0.500000 -0.356248
v 0.274072 0.500000 -0.356248
v 0.207543 0.500000 -0.304719
v 0.141014 0.475000 -0.374998
v 0.274072 0.475000 -0.374998
v 0.207543 0.475000 -0.322791
v 0.352580 0.890256 0.375006
v 0.177580 0.890256 0.375000
v 0.177580 0.871506 0.356250
v 0.152580 0.890256 0.356250
v 0.177580 0.871506 -0.356250
v 0.177580 0.890256 -0.375000
v 0.152580 0.890256 -0.356250
v 0.352580 0.890256 -0.368746
v 0.352580 1.077756 -0.368746
v 0.177580 1.077756 -0.375000
v 0.152580 1.077756 -0.356250
v 0.177580 1.096506 -0.356250
v 0.177580 1.096506 0.356250
v 0.152580 1.077756 0.356250
v 0.177580 1.077756 0.375000
v 0.352580 1.077756 0.375006
v 0.177580 0.990256 0.375000
v 0.152580 0.990256 0.356250
v 0.352580 0.990256 0.375006
v 0.352580 0.943727 -0.368746
v 0.352580 1.036784 -0.368746
v 0.352580 0.990256 -0.324721
v 0.152580 1.036784 -0.356250
v 0.152580 0.943727 -0.356250
v 0.152580 0.990256 -0.324721
v 0.177580 1.036784 -0.375000
v 0.177580 0.943727 -0.375000
v 0.177580 0.990256 -0.342793
v 0.352580 0.495881 -0.375006
v 0.177580 0.515256 -0.375000
v 0.177580 0.495881 -0.356250
v 0.152580 0.515256 -0.356250
v 0.177580 0.495881 0.356250
v 0.177580 0.515256 0.375000
v 0.152580 0.515256 0.356250
v 0.352580 0.495881 0.368746
v 0.352580 0.852756 0.368746
v 0.177580 0.852756 0.375000
v 0.152580 0.852756 0.356250
v 0.152580 0.852756 -0.356250
v 0.177580 0.852756 -0.375000
v 0.352580 0.852756 -0.375006
v 0.177580 0.665256 -0.375000
v 0.152580 0.665256 -0.356250
v 0.352580 0.665256 -0.375006
v 0.352580 0.618727 0.368746
v 0.352580 0.711784 0.368746
v 0.352580 0.665256 0.324721
v 0.152580 0.711784 0.356250
v 0.152580 0.618727 0.356250
v 0.152580 0.665256 0.324721
v 0.177580 0.711784 0.375000
v 0.177580 0.618727 0.375000
v 0.177580 0.665256 0.342793
v 0.352580 1.177756 0.189068
v 0.352580 1.207756 0.003130
v 0.352580 1.177756 -0.182808
v 0.152580 1.177756 -0.178125
v 0.152580 1.207756 -0.000000
v 0.152580 1.177756 0.178125
v 0.177580 1.196506 0.178125
v 0.177580 1.226506 -0.000000
v 0.177580 1.196506 -0.178125
vn -0.0000 -1.0000 -0.0000
vn -0.0000 -0.0933 -0.9956
vn 0.9956 0.0933 -0.0000
vn -0.9956 0.0933 -0.0000
vn -0.0000 0.0933 -0.9956
vn 0.9956 -0.0933 -0.0000
vn -0.9956 -0.0933 -0.0000
vn -0.2675 0.3494 -0.8980
vn -0.2698 -0.2948 -0.9167
vn -0.5736 -0.2738 -0.7720
vn -0.5970 0.4300 -0.6773
vn 0.7010 0.1314 -0.7010
vn -0.0000 0.0933 0.9956
vn -0.2526 0.9175 -0.3074
vn -0.2575 0.9663 -0.0010
vn 0.1029 0.9947 0.0019
vn 0.0879 0.9393 -0.3317
vn -0.0000 -0.0933 0.9956
vn -0.3016 -0.8886 0.3455
vn -0.6743 -0.5174 0.5270
vn -0.6743 -0.5174 -0.5270
vn -0.3076 -0.8885 -0.3404
vn -0.7010 0.1314 -0.7010
vn 0.2948 0.2698 0.9167
vn -0.3494 0.2675 0.8980
vn -0.0000 -0.0357 0.9994
vn 0.3386 -0.0475 0.9397
vn -0.0000 -0.0000 1.0000
vn 0.3495 0.2832 0.8931
vn -0.0021 0.3142 0.9493
vn -0.0040 -0.0042 1.0000
vn 0.0357 -0.0000 -0.9994
vn 0.0475 -0.3386 -0.9397
vn -0.0000 0.6000 -0.8000
vn 0.5257 0.6689 -0.5257
vn 0.3385 0.2947 -0.8936
vn 0.0026 0.3142 -0.9493
vn 0.9487 0.3162 -0.0000
vn 1.0000 -0.0000 -0.0000
vn -0.0000 1.0000 -0.0000
vn 0.0049 -0.0042 -1.0000
vn -0.0000 -0.0000 -1.0000
vn -0.3495 0.2832 -0.8931
vn -0.9487 0.3162 -0.0000
vn -0.8000 0.6000 -0.0000
vn -0.6000 -0.0000 -0.8000
vn -0.3162 -0.0000 -0.9487
vn -0.3025 -0.3279 -0.8950
vn -0.9073 0.2479 0.3397
vn -0.7069 -0.0253 0.7069
vn 0.7887 0.4067 -0.4610
vn 0.7059 0.0578 -0.7059
vn 0.5257 0.6689 0.5257
vn 0.3292 0.2902 0.8986
vn 0.7887 0.4067 0.4610
vn 0.8000 0.6000 -0.0000
vn 0.7059 0.0578 0.7059
vn -0.7071 -0.0000 -0.7071
vn -0.9075 0.2534 -0.3351
vn -0.5257 0.6689 0.5257
vn -0.5257 0.6689 -0.5257
vn 0.1065 0.9943 -0.0000
vn -0.7873 0.4094 0.4610
vn -0.7873 0.4094 -0.4610
vn -0.3162 -0.0000 0.9487
vn -0.2832 -0.3495 0.8931
vn -0.3360 0.2971 0.8938
vn -0.0079 -0.0085 0.9999
vn -0.1998 -0.0471 0.9787
vn -0.1705 0.2806 0.9446
vn -0.3278 0.2850 0.9007
vn -0.3665 -0.0645 0.9282
vn 0.1065 -0.9943 -0.0000
vn -1.0000 -0.0000 -0.0000
vn -0.2832 0.3495 0.8931
vn -0.2698 0.2948 -0.9167
vn -0.2675 -0.3494 -0.8980
vn -0.6689 -0.5257 -0.5257
vn -0.5736 0.2738 -0.7720
vn -0.2677 -0.5780 0.7709
vn -0.2698 -0.2948 0.9167
vn -0.5736 -0.2738 0.7720
vn -0.5193 -0.4829 0.7051
vn -0.2509 0.7850 0.5664
vn -0.2578 0.9168 0.3051
vn -0.5740 0.7654 0.2910
vn -0.5970 0.4300 0.6773
vn 0.0537 -0.6328 0.7725
vn 0.0475 -0.3386 0.9397
vn -0.6000 0.8000 -0.0000
vn -0.9943 -0.1065 -0.0000
vn -0.0000 0.6000 0.8000
vn -0.3309 0.2922 -0.8973
vn -0.7055 0.0682 -0.7055
vn 0.9075 0.2534 0.3351
vn 0.7071 -0.0000 0.7071
vn 0.9073 0.2479 -0.3397
vn 0.3494 0.2675 -0.8980
vn 0.3163 0.2683 -0.9099
vn 0.3592 -0.0426 -0.9323
vn 0.0119 -0.0275 -0.9996
vn 0.7069 -0.0253 -0.7069
vn -0.7055 0.0682 0.7055
vn 0.0357 -0.0000 0.9994
vn -0.2675 0.3494 0.8980
vn -0.2864 -0.3281 0.9002
vn 0.0475 0.3386 0.9397
vn -0.2698 0.2948 0.9167
vn 0.6570 -0.0523 -0.7521
vn 0.6145 0.2596 -0.7450
vn 0.2738 0.5736 0.7720
vn -0.1368 0.5908 0.7952
vn 0.3061 0.5678 -0.7642
vn 0.5317 0.5022 -0.6820
vn -0.2409 0.7863 -0.5690
vn 0.0661 0.8616 -0.5033
vn -0.0251 -0.0280 0.9993
vn 0.9943 -0.1065 -0.0000
vn -0.7010 0.1314 0.7010
vn -0.3949 -0.7959 0.4590
vn -0.0000 -0.7071 0.7071
vn -0.6689 -0.5257 0.5257
vn -0.3844 -0.7989 -0.4627
vn -0.2832 0.3495 -0.8931
vn 0.0253 -0.7069 -0.7069
vn 0.0481 0.8623 0.5042
vn 0.0537 -0.6328 -0.7725
vn -0.2677 -0.5780 -0.7709
vn -0.5740 0.7654 -0.2910
vn -0.6689 0.5257 -0.5257
vn 0.7010 0.1314 0.7010
vn -0.5736 0.2738 0.7720
vn 0.0537 0.6328 0.7725
vn -0.2677 0.5780 0.7709
vn 0.0475 0.3386 -0.9397
vn -0.6000 -0.0000 0.8000
vn -0.3133 0.2664 -0.9115
vn -0.6145 0.2596 -0.7450
vn -0.5317 0.5022 -0.6820
vn -0.3061 0.5678 -0.7642
vn 0.5780 0.2677 0.7709
vn 0.4829 0.5193 0.7051
vn -0.2677 0.5780 -0.7709
vn 0.0537 0.6328 -0.7725
vn -0.0000 -0.0357 -0.9994
vn -0.3536 -0.0471 -0.9342
vn -0.3844 0.7989 0.4627
vn 0.0253 0.7069 0.7069
vn -0.0768 -0.6934 -0.7165
vn -0.0512 -0.6945 0.7177
vn -0.3949 0.7959 -0.4590
vn -0.0000 0.7071 -0.7071
vn -0.6689 0.5257 0.5257
vn 0.0756 0.9390 0.3354
vn 0.6328 -0.0537 0.7725
vn -0.5193 -0.4829 -0.7051
vn -0.5193 0.4829 -0.7051
vn -0.5193 0.4829 0.7051
vn -0.6570 -0.0523 -0.7521
vn -0.2569 0.5731 0.7782
vn 0.0099 -0.0084 -0.9999
vt 0.579507 0.786290
vt 0.591743 0.786290
vt 0.592855 0.786290
vt 0.530565 0.890865
vt 0.526116 0.813991
vt 0.518329 0.890865
vt 0.513880 0.813991
vt 0.588406 0.890865
vt 0.592855 0.813991
vt 0.512768 0.786290
vt 0.526116 0.786290
vt 0.517217 0.890865
vt 0.512768 0.813991
vt 0.587294 0.890865
vt 0.575058 0.890865
vt 0.579507 0.813991
vt 0.591743 0.813991
vt 0.552811 0.964857
vt 0.551699 0.967259
vt 0.551699 0.975959
vt 0.591743 0.855541
vt 0.592855 0.855541
vt 0.588406 0.932416
vt 0.587294 0.932416
vt 0.513880 0.786290
vt 0.551699 0.847540
vt 0.531678 0.847540
vt 0.546694 0.970181
vt 0.541688 0.970181
vt 0.541688 0.953365
vt 0.546694 0.953365
vt 0.551699 0.905827
vt 0.551699 0.914315
vt 0.531678 0.914315
vt 0.531678 0.905827
vt 0.552811 0.892056
vt 0.551699 0.875240
vt 0.531678 0.875240
vt 0.530565 0.892056
vt 0.531678 0.967259
vt 0.531678 0.975959
vt 0.530565 0.964857
vt 0.583957 0.850026
vt 0.521666 0.850026
vt 0.521666 0.833209
vt 0.583957 0.833209
vt 0.521666 0.880128
vt 0.583957 0.880128
vt 0.521666 0.891576
vt 0.521666 0.893979
vt 0.583957 0.893979
vt 0.583957 0.891576
vt 0.583957 0.805509
vt 0.521666 0.805509
vt 0.531678 0.871181
vt 0.530565 0.905827
vt 0.551699 0.892056
vt 0.531678 0.892056
vt 0.531678 0.964857
vt 0.551699 0.964857
vt 0.551699 0.790445
vt 0.556179 0.876998
vt 0.536158 0.876998
vt 0.531678 0.790445
vt 0.531678 0.855482
vt 0.531678 0.944709
vt 0.551699 0.944709
vt 0.551699 0.855482
vt 0.551699 0.933434
vt 0.548939 0.933434
vt 0.531678 0.933434
vt 0.548939 0.847540
vt 0.551699 0.833689
vt 0.552811 0.850506
vt 0.550011 0.850506
vt 0.548939 0.833689
vt 0.531678 0.869213
vt 0.551699 0.905695
vt 0.531678 0.905695
vt 0.550011 0.927004
vt 0.552811 0.927004
vt 0.551699 0.928840
vt 0.548939 0.892358
vt 0.531678 0.980482
vt 0.536683 0.980482
vt 0.536683 0.991584
vt 0.531678 0.991584
vt 0.548939 0.858492
vt 0.556179 0.898174
vt 0.552811 0.871348
vt 0.550011 0.871348
vt 0.541688 0.980482
vt 0.541688 0.991584
vt 0.551699 0.841100
vt 0.531678 0.841100
vt 0.536158 0.880782
vt 0.551699 0.813931
vt 0.531678 0.813931
vt 0.551699 0.886732
vt 0.531678 0.886732
vt 0.521666 0.852428
vt 0.583957 0.852428
vt 0.552811 0.850171
vt 0.552811 0.875133
vt 0.551699 0.862277
vt 0.548939 0.902940
vt 0.551699 0.902940
vt 0.552811 0.919757
vt 0.550011 0.919757
vt 0.550011 0.992557
vt 0.552811 0.992557
vt 0.551699 0.994960
vt 0.548939 0.994960
vt 0.551699 0.970181
vt 0.551699 0.953365
vt 0.517217 0.932416
vt 0.518329 0.932416
vt 0.513880 0.855541
vt 0.512768 0.855541
vt 0.552811 0.970181
vt 0.530565 0.850171
vt 0.530565 0.970181
vt 0.531678 0.953365
vt 0.531678 0.970181
vt 0.552811 0.980482
vt 0.551699 0.991584
vt 0.551699 0.980482
vt 0.530565 0.980482
vt 0.546694 0.980482
vt 0.546694 0.991584
vt 0.551699 0.964684
vt 0.548939 0.933322
vt 0.531678 0.933322
vt 0.531678 0.862260
vt 0.548939 0.862260
vt 0.551699 0.862260
vt 0.552811 0.905827
vt 0.551699 0.907663
vt 0.551699 0.805550
vt 0.548939 0.805550
vt 0.550011 0.818406
vt 0.552811 0.818406
vt 0.551699 0.917982
vt 0.531678 0.917982
vt 0.531678 0.929084
vt 0.551699 0.929084
vt 0.546694 0.964684
vt 0.536683 0.964684
vt 0.541688 0.964684
vt 0.531678 0.935897
vt 0.552811 0.923306
vt 0.550011 0.923306
vt 0.548939 0.925709
vt 0.551699 0.925709
vt 0.531678 0.850171
vt 0.531678 0.837315
vt 0.551699 0.837315
vt 0.551699 0.850171
vt 0.551699 0.846101
vt 0.531678 0.846101
vt 0.536683 0.970181
vt 0.536683 0.953365
vt 0.548939 0.869213
vt 0.536158 0.855821
vt 0.556179 0.855821
vt 0.548939 0.816138
vt 0.531678 0.964684
vt 0.531678 0.822210
vt 0.531678 0.890424
vt 0.551699 0.890424
vt 0.551699 0.822210
vt 0.548939 0.963598
vt 0.548939 0.894347
vt 0.551699 0.816138
vt 0.552811 0.874062
vt 0.550011 0.874062
vt 0.548939 0.839416
vt 0.551699 0.875898
vt 0.536683 0.847540
vt 0.546694 0.847540
vt 0.541688 0.847540
s 1
f 23/1/1 21/1/1 34/2/1 25/3/1
f 3/1/1 14/3/1 13/2/1
f 30/4/2 32/4/2 31/5/2 29/5/2
f 12/4/3 19/6/3 18/7/3 11/5/3
f 40/6/4 30/4/4 29/5/4 37/7/4
f 6/8/5 15/8/5 14/9/5 5/9/5
f 38/10/1 29/11/1 31/11/1 27/10/1
f 32/4/6 28/12/6 27/13/6 31/5/6
f 16/14/3 4/15/3 3/16/3 13/17/3
f 36/8/5 26/8/5 25/9/5 33/9/5
f 8/12/7 10/4/7 9/5/7 7/13/7
f 122/18/8 138/18/9 135/19/10 123/20/11
f 13/21/12 14/22/12 15/23/12 16/24/12
f 17/10/1 11/11/1 18/25/1
f 10/4/2 12/4/2 11/5/2 9/5/2
f 20/12/13 8/12/13 7/13/13 17/13/13
f 78/26/1 77/27/1 61/27/1 66/26/1
f 22/15/4 35/14/4 34/17/4 21/16/4
f 175/28/14 174/29/15 168/30/16 169/31/17
f 28/12/13 39/12/13 38/13/13 27/13/13
f 4/15/18 2/15/18 1/16/18 3/16/18
f 26/8/6 24/15/6 23/16/6 25/9/6
f 24/15/18 22/15/18 21/16/18 23/16/18
f 17/10/1 7/10/1 9/11/1 11/11/1
f 25/3/1 34/2/1 33/3/1
f 145/32/19 147/33/20 144/34/21 143/35/22
f 33/22/23 34/21/23 35/24/23 36/23/23
f 38/10/1 37/25/1 29/11/1
f 84/36/24 68/36/25 67/37/26 79/37/27
f 87/38/28 88/39/29 101/39/30 103/38/31
f 138/36/9 122/36/8 121/37/32 133/37/33
f 76/40/34 63/41/35 62/42/36 75/42/37
f 59/43/38 58/44/38 49/45/39 52/46/39
f 48/47/40 57/47/40 60/48/40 51/48/40
f 77/38/41 74/38/42 73/39/43 75/39/37
f 54/47/40 43/47/40 46/48/40 55/48/40
f 53/49/44 54/50/45 55/51/45 56/52/44
f 50/53/1 52/53/1 49/54/1 47/54/1
f 156/55/46 155/56/47 142/56/48 144/34/21
f 70/57/49 67/37/50 68/36/25
f 97/58/51 61/38/52 62/39/36
f 63/41/35 97/59/51 62/42/36
f 65/20/53 64/18/54 98/60/55
f 59/52/38 60/51/56 57/50/56 58/49/38
f 66/37/57 98/57/55 64/36/54
f 73/39/43 74/38/58 71/58/59
f 68/18/25 69/20/60 70/60/49
f 71/59/59 72/41/61 73/42/43
f 115/61/62 149/62/62 154/63/62 117/64/62
f 98/65/63 99/66/60 96/67/61 97/68/64
f 113/38/28 131/38/28 129/39/65 114/39/66
f 105/26/1 103/27/1 66/27/1 61/26/1
f 81/69/40 83/70/40 76/71/40
f 77/27/1 80/72/1 79/26/1
f 103/38/31 101/39/30 100/39/67 66/38/68
f 78/73/69 85/74/70 86/75/71 80/76/72
f 120/37/73 113/38/73 115/58/73 117/57/73
f 44/53/1 45/53/1 42/54/1 41/54/1
f 156/77/74 161/78/74 151/78/74 152/79/74
f 131/38/28 128/38/28 127/39/75 129/39/65
f 139/18/76 118/18/77 119/20/78 136/19/79
f 166/80/80 164/81/81 161/82/82 163/83/83
f 125/84/84 173/85/85 172/86/86 126/87/87
f 160/88/88 159/89/89 164/90/81 166/91/80
f 53/44/44 56/43/44 44/46/74 41/45/74
f 83/70/40 82/69/40 76/71/40
f 77/27/1 78/26/1 80/72/1
f 173/85/85 174/92/15 171/93/90 172/86/86
f 158/94/39 148/94/39 141/95/39 157/96/39
f 70/57/49 71/58/59 74/38/91 67/37/91
f 99/41/60 100/42/67 101/42/30 102/40/92
f 97/97/64 95/36/93 61/37/94
f 89/58/95 88/39/29 87/38/96
f 90/41/53 88/42/29 89/59/95
f 93/20/35 91/60/97 92/18/98
f 110/36/99 105/37/100 61/37/101 95/36/93
f 94/37/102 92/36/98 91/57/97
f 100/39/67 98/98/63 66/38/103
f 95/18/93 97/99/64 96/20/61
f 98/100/63 100/42/67 99/41/60
f 102/40/92 101/42/30 88/42/29 90/41/53
f 48/101/74 51/102/74 50/46/74 47/45/74
f 164/103/81 159/62/89 149/62/104 150/103/105
f 107/69/40 102/71/40 109/70/40
f 103/27/1 105/26/1 106/72/1
f 146/104/106 148/105/104 158/105/107 165/104/108
f 91/60/97 93/20/35 90/41/53 89/59/95
f 106/106/109 105/107/100 110/108/99 112/109/110
f 68/18/25 84/18/24 81/19/111 69/20/60
f 90/71/40 93/69/40 108/69/40 102/71/40
f 71/59/59 70/60/49 69/20/60 72/41/61
f 85/18/70 64/18/54 65/20/53 82/19/112
f 112/110/110 110/111/99 107/112/113 109/113/114
f 124/114/115 175/28/14 169/31/17 121/115/116
f 64/36/54 85/36/70 78/37/69 66/37/117
f 109/70/40 102/71/40 108/69/40
f 103/27/1 106/72/1 104/26/1
f 102/71/40 107/69/40 96/69/40 99/71/40
f 63/71/40 76/71/40 82/69/40 65/69/40
f 94/37/118 91/57/97 89/58/95 87/38/118
f 39/116/119 40/117/119 37/118/119 38/119/119
f 124/114/115 121/115/116 122/120/8
f 115/58/120 113/38/121 114/39/66
f 116/41/122 115/59/120 114/42/66
f 119/20/78 118/18/77 117/60/123
f 157/63/42 155/121/47 153/121/124 154/63/42
f 120/37/125 117/57/123 118/36/77
f 127/122/75 128/123/126 125/124/84
f 122/125/8 123/126/11 124/127/115
f 125/84/84 126/87/87 127/128/75
f 134/106/127 140/109/128 138/108/9 133/107/33
f 175/129/14 124/127/115 123/126/11 170/130/129
f 152/34/130 153/56/124 155/56/47 156/55/46
f 17/119/131 18/118/131 19/117/131 20/116/131
f 135/131/74 137/132/74 130/133/74
f 131/134/39 134/135/39 133/136/39
f 104/26/1 94/26/1 87/27/1 103/27/1
f 165/137/108 162/138/132 147/33/20 146/137/106
f 158/139/107 160/140/133 166/141/134 165/142/108
f 117/143/123 115/144/120 116/145/122 119/146/78
f 170/147/74 172/148/74 171/149/74
f 118/36/77 139/36/76 132/37/135 120/37/32
f 130/150/136 116/41/122 114/42/66 129/42/65
f 111/151/137 112/152/138 109/153/139 108/154/140
f 86/110/141 83/113/142 81/112/111 84/111/24
f 132/73/135 139/74/76 140/75/143 134/76/144
f 92/36/98 94/37/145 104/37/146 111/36/137
f 137/132/74 136/131/74 130/133/74
f 131/134/39 132/136/39 134/135/39
f 133/136/39 121/136/39 128/134/39 131/134/39
f 76/71/40 72/71/40 69/69/40 81/69/40
f 2/15/7 6/8/7 5/9/7 1/16/7
f 1/1/1 5/3/1 14/3/1 3/1/1
f 115/61/147 150/103/105 149/62/148
f 143/155/22 142/121/48 141/156/149
f 144/34/21 142/56/48 143/35/22
f 147/33/20 145/32/19 146/137/106
f 72/41/61 76/40/34 75/42/37 73/42/43
f 148/157/150 146/103/106 145/158/19
f 153/121/124 117/64/151 154/63/152
f 150/137/105 115/159/147 151/33/153
f 117/160/151 153/56/124 152/34/130
f 148/157/1 145/158/19 143/155/22 141/156/1
f 111/18/137 108/19/140 93/20/35 92/18/98
f 98/143/55 97/144/51 63/145/35 65/146/53
f 174/29/15 173/161/85 167/162/154 168/30/16
f 161/78/74 156/77/74 163/163/74
f 157/164/39 159/165/39 160/166/39
f 116/167/74 130/133/74 136/131/74 119/131/74
f 141/156/42 142/121/48 155/121/47 157/63/42
f 80/106/155 86/109/141 84/108/24 79/107/27
f 117/168/151 152/169/130 151/170/153 115/171/147
f 130/133/74 126/167/74 123/131/74 135/131/74
f 126/41/87 130/150/136 129/42/65 127/42/75
f 150/137/105 151/33/153 161/138/82 164/137/81
f 140/110/128 137/172/156 135/112/10 138/111/9
f 139/151/76 136/154/79 137/173/157 140/152/143
f 173/161/85 125/124/84 128/123/126 167/162/154
f 95/18/93 96/20/61 107/19/113 110/18/99
f 163/163/74 156/77/74 162/78/74
f 157/164/39 160/166/39 158/174/39
f 132/136/39 131/134/39 113/134/39 120/136/39
f 79/26/1 67/26/1 74/27/1 77/27/1
f 165/175/108 166/176/134 163/177/158 162/178/132
f 104/73/146 106/76/159 112/75/138 111/74/137
f 174/92/15 175/129/14 170/130/129 171/93/90
f 85/151/70 82/154/112 83/153/160 86/152/71
f 61/38/161 77/38/41 75/39/37 62/39/36
f 159/165/39 157/164/39 154/164/39 149/165/39
f 144/79/74 147/78/74 162/78/74 156/77/74
f 170/147/74 123/131/74 126/167/74
f 170/147/74 126/167/74 172/148/74
f 167/179/39 128/27/39 121/26/39
f 167/179/39 121/26/39 169/180/39
f 168/181/39 167/179/39 169/180/39
f 46/102/39 43/101/39 42/45/39 45/46/39
